<?xml version="1.0" encoding="utf-8" standalone="no"?><svg xmlns="http://www.w3.org/2000/svg" xmlns:xlink="http://www.w3.org/1999/xlink" width="25.400050800101603mm" height="25.400050800101603mm" viewBox="4129 3329 100 100"><title>Photo View</title><rect x="4129" y="3329" width="100" height="100" fill="#000000" stroke="none"/><defs xmlns="http://www.w3.org/2000/svg" id="patterns"><pattern id="gridPattern" x="4000" y="3000" width="10" height="10" patternUnits="userSpaceOnUse"><rect id="gridCell" x="0" y="0" width="0.50001" height="0.50001" fill="#FFFFFF" stroke="none"/></pattern><pattern id="gridPattern2" x="4000.50001" y="3000.50001" width="10" height="10" patternUnits="userSpaceOnUse"><path id="gridCell2" d="M10 0V10H-10" fill="none" stroke="#FFFFFF" stroke-width="0.50001" stroke-opacity="0.6"/></pattern><marker id="arrowOnStart" orient="auto" refY="0" refX="0" style="overflow:visible" markerUnits="strokeWidth"><path d="M 2,0 l 4,-2, 0,4 z" stroke-width="6"/></marker><marker id="arrowOnEnd" orient="auto" refY="0" refX="0" style="overflow:visible" markerUnits="strokeWidth"><path d="M -2,0 l -4,-2, 0,4 z" stroke-width="6"/></marker><marker id="arrowOnStartChrome" orient="auto" refY="0" refX="0" style="overflow:visible" markerUnits="strokeWidth"><path d="M 2,0 l 4,-2, 0,4 z" stroke-width="3" stroke="#FFFFFF"/></marker><marker id="arrowOnEndChrome" orient="auto" refY="0" refX="0" style="overflow:visible" markerUnits="strokeWidth"><path d="M -2,0 l -4,-2, 0,4 z" stroke-width="3" stroke="#FFFFFF"/></marker><svg id="icon-lock" title="Unlock" viewBox="0 0 20 20" height="20" width="20"><path stroke="#F0F" stroke-width="2" style="cursor:pointer;fill-opacity:.001;fill:#fff" d="M 5 7 C 5 -1 15 -1 15 7L1 7 1 19 19 19 19 7 15 7"/></svg><mask id="topBoardSolderMask" maskUnits="userSpaceOnUse" x="4139" y="3338.5" width="47.1" height="59"><path d="M4143 3397,4143 3339,4181 3339,4181 3397z" stroke="none" fill="white"/></mask><mask id="topSignalSolderMask" maskUnits="userSpaceOnUse" x="4139" y="3338.5" width="47.1" height="59"><path d="M4143 3397,4143 3339,4181 3339,4181 3397z" stroke="none" fill="white"/></mask><mask id="bottomBoardSolderMask" maskUnits="userSpaceOnUse" x="4139" y="3338.5" width="47.1" height="59"><path d="M4143 3397,4143 3339,4181 3339,4181 3397z" stroke="none" fill="white"/><g fill="black"><polygon points="4146.098 3353.354 4146.036 3353.344 4145.98 3353.316 4145.936 3353.272 4145.908 3353.216 4145.898 3353.154 4145.898 3347.307 4145.908 3347.245 4145.936 3347.189 4145.98 3347.145 4146.036 3347.117 4146.098 3347.107 4152.902 3347.107 4152.964 3347.117 4153.02 3347.145 4153.064 3347.189 4153.092 3347.245 4153.102 3347.307 4153.102 3353.154 4153.092 3353.216 4153.064 3353.272 4153.02 3353.316 4152.964 3353.344 4152.902 3353.354" stroke-width="0" c_etype="pad_outer"/><polygon points="4146.098 3365.893 4146.036 3365.883 4145.98 3365.855 4145.936 3365.811 4145.908 3365.755 4145.898 3365.693 4145.898 3359.847 4145.908 3359.785 4145.936 3359.729 4145.98 3359.685 4146.036 3359.657 4146.098 3359.647 4152.902 3359.647 4152.964 3359.657 4153.02 3359.685 4153.064 3359.729 4153.092 3359.785 4153.102 3359.847 4153.102 3365.693 4153.092 3365.755 4153.064 3365.811 4153.02 3365.855 4152.964 3365.883 4152.902 3365.893" stroke-width="0" c_etype="pad_outer"/><polygon points="4157.763 3354.321 4157.659 3354.307 4157.563 3354.267 4157.48 3354.204 4157.417 3354.121 4157.377 3354.025 4157.363 3353.921 4157.363 3344.079 4157.377 3343.975 4157.417 3343.879 4157.48 3343.796 4157.563 3343.733 4157.659 3343.693 4157.763 3343.679 4163.669 3343.679 4163.773 3343.693 4163.869 3343.733 4163.952 3343.796 4164.015 3343.879 4164.055 3343.975 4164.069 3344.079 4164.069 3353.921 4164.055 3354.025 4164.015 3354.121 4163.952 3354.204 4163.869 3354.267 4163.773 3354.307 4163.669 3354.321" stroke-width="0" c_etype="pad_outer"/><polygon points="4172.33 3354.321 4172.226 3354.307 4172.13 3354.267 4172.047 3354.204 4171.984 3354.121 4171.944 3354.025 4171.93 3353.921 4171.93 3344.079 4171.944 3343.975 4171.984 3343.879 4172.047 3343.796 4172.13 3343.733 4172.226 3343.693 4172.33 3343.679 4178.236 3343.679 4178.34 3343.693 4178.436 3343.733 4178.519 3343.796 4178.582 3343.879 4178.622 3343.975 4178.636 3344.079 4178.636 3353.921 4178.622 3354.025 4178.582 3354.121 4178.519 3354.204 4178.436 3354.267 4178.34 3354.307 4178.236 3354.321" stroke-width="0" c_etype="pad_outer"/><polygon points="4158.677 3374.18 4158.615 3374.17 4158.559 3374.142 4158.515 3374.098 4158.487 3374.042 4158.477 3373.98 4158.477 3370.043 4158.487 3369.981 4158.515 3369.925 4158.559 3369.881 4158.615 3369.853 4158.677 3369.843 4160.842 3369.843 4160.904 3369.853 4160.96 3369.881 4161.004 3369.925 4161.032 3369.981 4161.042 3370.043 4161.042 3373.98 4161.032 3374.042 4161.004 3374.098 4160.96 3374.142 4160.904 3374.17 4160.842 3374.18" stroke-width="0" c_etype="pad_outer"/><polygon points="4162.417 3374.18 4162.355 3374.17 4162.299 3374.142 4162.255 3374.098 4162.227 3374.042 4162.217 3373.98 4162.217 3370.043 4162.227 3369.981 4162.255 3369.925 4162.299 3369.881 4162.355 3369.853 4162.417 3369.843 4164.582 3369.843 4164.644 3369.853 4164.7 3369.881 4164.744 3369.925 4164.772 3369.981 4164.782 3370.043 4164.782 3373.98 4164.772 3374.042 4164.744 3374.098 4164.7 3374.142 4164.644 3374.17 4164.582 3374.18" stroke-width="0" c_etype="pad_outer"/><polygon points="4166.157 3374.18 4166.095 3374.17 4166.039 3374.142 4165.995 3374.098 4165.967 3374.042 4165.957 3373.98 4165.957 3370.043 4165.967 3369.981 4165.995 3369.925 4166.039 3369.881 4166.095 3369.853 4166.157 3369.843 4168.322 3369.843 4168.384 3369.853 4168.44 3369.881 4168.484 3369.925 4168.512 3369.981 4168.522 3370.043 4168.522 3373.98 4168.512 3374.042 4168.484 3374.098 4168.44 3374.142 4168.384 3374.17 4168.322 3374.18" stroke-width="0" c_etype="pad_outer"/><polygon points="4166.157 3363.156 4166.095 3363.146 4166.039 3363.118 4165.995 3363.074 4165.967 3363.018 4165.957 3362.956 4165.957 3359.019 4165.967 3358.957 4165.995 3358.901 4166.039 3358.857 4166.095 3358.829 4166.157 3358.819 4168.322 3358.819 4168.384 3358.829 4168.44 3358.857 4168.484 3358.901 4168.512 3358.957 4168.522 3359.019 4168.522 3362.956 4168.512 3363.018 4168.484 3363.074 4168.44 3363.118 4168.384 3363.146 4168.322 3363.156" stroke-width="0" c_etype="pad_outer"/><polygon points="4162.417 3363.156 4162.355 3363.146 4162.299 3363.118 4162.255 3363.074 4162.227 3363.018 4162.217 3362.956 4162.217 3359.019 4162.227 3358.957 4162.255 3358.901 4162.299 3358.857 4162.355 3358.829 4162.417 3358.819 4164.582 3358.819 4164.644 3358.829 4164.7 3358.857 4164.744 3358.901 4164.772 3358.957 4164.782 3359.019 4164.782 3362.956 4164.772 3363.018 4164.744 3363.074 4164.7 3363.118 4164.644 3363.146 4164.582 3363.156" stroke-width="0" c_etype="pad_outer"/><polygon points="4158.677 3363.156 4158.615 3363.146 4158.559 3363.118 4158.515 3363.074 4158.487 3363.018 4158.477 3362.956 4158.477 3359.019 4158.487 3358.957 4158.515 3358.901 4158.559 3358.857 4158.615 3358.829 4158.677 3358.819 4160.842 3358.819 4160.904 3358.829 4160.96 3358.857 4161.004 3358.901 4161.032 3358.957 4161.042 3359.019 4161.042 3362.956 4161.032 3363.018 4161.004 3363.074 4160.96 3363.118 4160.904 3363.146 4160.842 3363.156" stroke-width="0" c_etype="pad_outer"/><polygon points="4166.799 3382.322 4166.737 3382.312 4166.681 3382.284 4166.637 3382.24 4166.609 3382.184 4166.599 3382.122 4166.599 3378.947 4166.609 3378.885 4166.637 3378.829 4166.681 3378.785 4166.737 3378.757 4166.799 3378.747 4170.201 3378.747 4170.263 3378.757 4170.319 3378.785 4170.363 3378.829 4170.391 3378.885 4170.401 3378.947 4170.401 3382.122 4170.391 3382.184 4170.363 3382.24 4170.319 3382.284 4170.263 3382.312 4170.201 3382.322" stroke-width="0" c_etype="pad_outer"/><polygon points="4166.799 3388.253 4166.737 3388.243 4166.681 3388.215 4166.637 3388.171 4166.609 3388.115 4166.599 3388.053 4166.599 3384.878 4166.609 3384.816 4166.637 3384.76 4166.681 3384.716 4166.737 3384.688 4166.799 3384.678 4170.201 3384.678 4170.263 3384.688 4170.319 3384.716 4170.363 3384.76 4170.391 3384.816 4170.401 3384.878 4170.401 3388.053 4170.391 3388.115 4170.363 3388.171 4170.319 3388.215 4170.263 3388.243 4170.201 3388.253" stroke-width="0" c_etype="pad_outer"/><polygon points="4159.299 3388.253 4159.237 3388.243 4159.181 3388.215 4159.137 3388.171 4159.109 3388.115 4159.099 3388.053 4159.099 3384.878 4159.109 3384.816 4159.137 3384.76 4159.181 3384.716 4159.237 3384.688 4159.299 3384.678 4162.701 3384.678 4162.763 3384.688 4162.819 3384.716 4162.863 3384.76 4162.891 3384.816 4162.901 3384.878 4162.901 3388.053 4162.891 3388.115 4162.863 3388.171 4162.819 3388.215 4162.763 3388.243 4162.701 3388.253" stroke-width="0" c_etype="pad_outer"/><polygon points="4159.299 3382.322 4159.237 3382.312 4159.181 3382.284 4159.137 3382.24 4159.109 3382.184 4159.099 3382.122 4159.099 3378.947 4159.109 3378.885 4159.137 3378.829 4159.181 3378.785 4159.237 3378.757 4159.299 3378.747 4162.701 3378.747 4162.763 3378.757 4162.819 3378.785 4162.863 3378.829 4162.891 3378.885 4162.901 3378.947 4162.901 3382.122 4162.891 3382.184 4162.863 3382.24 4162.819 3382.284 4162.763 3382.312 4162.701 3382.322" stroke-width="0" c_etype="pad_outer"/><polygon points="4151.878 3373.901 4151.816 3373.891 4151.76 3373.863 4151.716 3373.819 4151.688 3373.763 4151.678 3373.701 4151.678 3370.299 4151.688 3370.237 4151.716 3370.181 4151.76 3370.137 4151.816 3370.109 4151.878 3370.099 4155.053 3370.099 4155.115 3370.109 4155.171 3370.137 4155.215 3370.181 4155.243 3370.237 4155.253 3370.299 4155.253 3373.701 4155.243 3373.763 4155.215 3373.819 4155.171 3373.863 4155.115 3373.891 4155.053 3373.901" stroke-width="0" c_etype="pad_outer"/><polygon points="4145.947 3373.901 4145.885 3373.891 4145.829 3373.863 4145.785 3373.819 4145.757 3373.763 4145.747 3373.701 4145.747 3370.299 4145.757 3370.237 4145.785 3370.181 4145.829 3370.137 4145.885 3370.109 4145.947 3370.099 4149.122 3370.099 4149.184 3370.109 4149.24 3370.137 4149.284 3370.181 4149.312 3370.237 4149.322 3370.299 4149.322 3373.701 4149.312 3373.763 4149.284 3373.819 4149.24 3373.863 4149.184 3373.891 4149.122 3373.901" stroke-width="0" c_etype="pad_outer"/><polygon points="4174.63 3366.869 4174.568 3366.859 4174.512 3366.831 4174.468 3366.787 4174.44 3366.731 4174.43 3366.669 4174.43 3361.945 4174.44 3361.883 4174.468 3361.827 4174.512 3361.783 4174.568 3361.755 4174.63 3361.745 4178.37 3361.745 4178.432 3361.755 4178.488 3361.783 4178.532 3361.827 4178.56 3361.883 4178.57 3361.945 4178.57 3366.669 4178.56 3366.731 4178.532 3366.787 4178.488 3366.831 4178.432 3366.859 4178.37 3366.869" stroke-width="0" c_etype="pad_outer"/><polygon points="4174.63 3380.255 4174.568 3380.245 4174.512 3380.217 4174.468 3380.173 4174.44 3380.117 4174.43 3380.055 4174.43 3375.331 4174.44 3375.269 4174.468 3375.213 4174.512 3375.169 4174.568 3375.141 4174.63 3375.131 4178.37 3375.131 4178.432 3375.141 4178.488 3375.169 4178.532 3375.213 4178.56 3375.269 4178.57 3375.331 4178.57 3380.055 4178.56 3380.117 4178.532 3380.173 4178.488 3380.217 4178.432 3380.245 4178.37 3380.255" stroke-width="0" c_etype="pad_outer"/><polygon points="4146.098 3395.893 4146.036 3395.883 4145.98 3395.855 4145.936 3395.811 4145.908 3395.755 4145.898 3395.693 4145.898 3389.847 4145.908 3389.785 4145.936 3389.729 4145.98 3389.685 4146.036 3389.657 4146.098 3389.647 4152.902 3389.647 4152.964 3389.657 4153.02 3389.685 4153.064 3389.729 4153.092 3389.785 4153.102 3389.847 4153.102 3395.693 4153.092 3395.755 4153.064 3395.811 4153.02 3395.855 4152.964 3395.883 4152.902 3395.893" stroke-width="0" c_etype="pad_outer"/><polygon points="4146.098 3383.354 4146.036 3383.344 4145.98 3383.316 4145.936 3383.272 4145.908 3383.216 4145.898 3383.154 4145.898 3377.307 4145.908 3377.245 4145.936 3377.189 4145.98 3377.145 4146.036 3377.117 4146.098 3377.107 4152.902 3377.107 4152.964 3377.117 4153.02 3377.145 4153.064 3377.189 4153.092 3377.245 4153.102 3377.307 4153.102 3383.154 4153.092 3383.216 4153.064 3383.272 4153.02 3383.316 4152.964 3383.344 4152.902 3383.354" stroke-width="0" c_etype="pad_outer"/></g></mask><mask id="bottomSignalSolderMask" maskUnits="userSpaceOnUse" x="4139" y="3338.5" width="47.1" height="59"><path d="M4143 3397,4143 3339,4181 3339,4181 3397z" stroke="none" fill="white"/><g fill="black"><polygon points="4146.098 3353.354 4146.036 3353.344 4145.98 3353.316 4145.936 3353.272 4145.908 3353.216 4145.898 3353.154 4145.898 3347.307 4145.908 3347.245 4145.936 3347.189 4145.98 3347.145 4146.036 3347.117 4146.098 3347.107 4152.902 3347.107 4152.964 3347.117 4153.02 3347.145 4153.064 3347.189 4153.092 3347.245 4153.102 3347.307 4153.102 3353.154 4153.092 3353.216 4153.064 3353.272 4153.02 3353.316 4152.964 3353.344 4152.902 3353.354" stroke-width="0" c_etype="pad_outer"/><polygon points="4146.098 3365.893 4146.036 3365.883 4145.98 3365.855 4145.936 3365.811 4145.908 3365.755 4145.898 3365.693 4145.898 3359.847 4145.908 3359.785 4145.936 3359.729 4145.98 3359.685 4146.036 3359.657 4146.098 3359.647 4152.902 3359.647 4152.964 3359.657 4153.02 3359.685 4153.064 3359.729 4153.092 3359.785 4153.102 3359.847 4153.102 3365.693 4153.092 3365.755 4153.064 3365.811 4153.02 3365.855 4152.964 3365.883 4152.902 3365.893" stroke-width="0" c_etype="pad_outer"/><polygon points="4157.763 3354.321 4157.659 3354.307 4157.563 3354.267 4157.48 3354.204 4157.417 3354.121 4157.377 3354.025 4157.363 3353.921 4157.363 3344.079 4157.377 3343.975 4157.417 3343.879 4157.48 3343.796 4157.563 3343.733 4157.659 3343.693 4157.763 3343.679 4163.669 3343.679 4163.773 3343.693 4163.869 3343.733 4163.952 3343.796 4164.015 3343.879 4164.055 3343.975 4164.069 3344.079 4164.069 3353.921 4164.055 3354.025 4164.015 3354.121 4163.952 3354.204 4163.869 3354.267 4163.773 3354.307 4163.669 3354.321" stroke-width="0" c_etype="pad_outer"/><polygon points="4172.33 3354.321 4172.226 3354.307 4172.13 3354.267 4172.047 3354.204 4171.984 3354.121 4171.944 3354.025 4171.93 3353.921 4171.93 3344.079 4171.944 3343.975 4171.984 3343.879 4172.047 3343.796 4172.13 3343.733 4172.226 3343.693 4172.33 3343.679 4178.236 3343.679 4178.34 3343.693 4178.436 3343.733 4178.519 3343.796 4178.582 3343.879 4178.622 3343.975 4178.636 3344.079 4178.636 3353.921 4178.622 3354.025 4178.582 3354.121 4178.519 3354.204 4178.436 3354.267 4178.34 3354.307 4178.236 3354.321" stroke-width="0" c_etype="pad_outer"/><polygon points="4158.677 3374.18 4158.615 3374.17 4158.559 3374.142 4158.515 3374.098 4158.487 3374.042 4158.477 3373.98 4158.477 3370.043 4158.487 3369.981 4158.515 3369.925 4158.559 3369.881 4158.615 3369.853 4158.677 3369.843 4160.842 3369.843 4160.904 3369.853 4160.96 3369.881 4161.004 3369.925 4161.032 3369.981 4161.042 3370.043 4161.042 3373.98 4161.032 3374.042 4161.004 3374.098 4160.96 3374.142 4160.904 3374.17 4160.842 3374.18" stroke-width="0" c_etype="pad_outer"/><polygon points="4162.417 3374.18 4162.355 3374.17 4162.299 3374.142 4162.255 3374.098 4162.227 3374.042 4162.217 3373.98 4162.217 3370.043 4162.227 3369.981 4162.255 3369.925 4162.299 3369.881 4162.355 3369.853 4162.417 3369.843 4164.582 3369.843 4164.644 3369.853 4164.7 3369.881 4164.744 3369.925 4164.772 3369.981 4164.782 3370.043 4164.782 3373.98 4164.772 3374.042 4164.744 3374.098 4164.7 3374.142 4164.644 3374.17 4164.582 3374.18" stroke-width="0" c_etype="pad_outer"/><polygon points="4166.157 3374.18 4166.095 3374.17 4166.039 3374.142 4165.995 3374.098 4165.967 3374.042 4165.957 3373.98 4165.957 3370.043 4165.967 3369.981 4165.995 3369.925 4166.039 3369.881 4166.095 3369.853 4166.157 3369.843 4168.322 3369.843 4168.384 3369.853 4168.44 3369.881 4168.484 3369.925 4168.512 3369.981 4168.522 3370.043 4168.522 3373.98 4168.512 3374.042 4168.484 3374.098 4168.44 3374.142 4168.384 3374.17 4168.322 3374.18" stroke-width="0" c_etype="pad_outer"/><polygon points="4166.157 3363.156 4166.095 3363.146 4166.039 3363.118 4165.995 3363.074 4165.967 3363.018 4165.957 3362.956 4165.957 3359.019 4165.967 3358.957 4165.995 3358.901 4166.039 3358.857 4166.095 3358.829 4166.157 3358.819 4168.322 3358.819 4168.384 3358.829 4168.44 3358.857 4168.484 3358.901 4168.512 3358.957 4168.522 3359.019 4168.522 3362.956 4168.512 3363.018 4168.484 3363.074 4168.44 3363.118 4168.384 3363.146 4168.322 3363.156" stroke-width="0" c_etype="pad_outer"/><polygon points="4162.417 3363.156 4162.355 3363.146 4162.299 3363.118 4162.255 3363.074 4162.227 3363.018 4162.217 3362.956 4162.217 3359.019 4162.227 3358.957 4162.255 3358.901 4162.299 3358.857 4162.355 3358.829 4162.417 3358.819 4164.582 3358.819 4164.644 3358.829 4164.7 3358.857 4164.744 3358.901 4164.772 3358.957 4164.782 3359.019 4164.782 3362.956 4164.772 3363.018 4164.744 3363.074 4164.7 3363.118 4164.644 3363.146 4164.582 3363.156" stroke-width="0" c_etype="pad_outer"/><polygon points="4158.677 3363.156 4158.615 3363.146 4158.559 3363.118 4158.515 3363.074 4158.487 3363.018 4158.477 3362.956 4158.477 3359.019 4158.487 3358.957 4158.515 3358.901 4158.559 3358.857 4158.615 3358.829 4158.677 3358.819 4160.842 3358.819 4160.904 3358.829 4160.96 3358.857 4161.004 3358.901 4161.032 3358.957 4161.042 3359.019 4161.042 3362.956 4161.032 3363.018 4161.004 3363.074 4160.96 3363.118 4160.904 3363.146 4160.842 3363.156" stroke-width="0" c_etype="pad_outer"/><polygon points="4166.799 3382.322 4166.737 3382.312 4166.681 3382.284 4166.637 3382.24 4166.609 3382.184 4166.599 3382.122 4166.599 3378.947 4166.609 3378.885 4166.637 3378.829 4166.681 3378.785 4166.737 3378.757 4166.799 3378.747 4170.201 3378.747 4170.263 3378.757 4170.319 3378.785 4170.363 3378.829 4170.391 3378.885 4170.401 3378.947 4170.401 3382.122 4170.391 3382.184 4170.363 3382.24 4170.319 3382.284 4170.263 3382.312 4170.201 3382.322" stroke-width="0" c_etype="pad_outer"/><polygon points="4166.799 3388.253 4166.737 3388.243 4166.681 3388.215 4166.637 3388.171 4166.609 3388.115 4166.599 3388.053 4166.599 3384.878 4166.609 3384.816 4166.637 3384.76 4166.681 3384.716 4166.737 3384.688 4166.799 3384.678 4170.201 3384.678 4170.263 3384.688 4170.319 3384.716 4170.363 3384.76 4170.391 3384.816 4170.401 3384.878 4170.401 3388.053 4170.391 3388.115 4170.363 3388.171 4170.319 3388.215 4170.263 3388.243 4170.201 3388.253" stroke-width="0" c_etype="pad_outer"/><polygon points="4159.299 3388.253 4159.237 3388.243 4159.181 3388.215 4159.137 3388.171 4159.109 3388.115 4159.099 3388.053 4159.099 3384.878 4159.109 3384.816 4159.137 3384.76 4159.181 3384.716 4159.237 3384.688 4159.299 3384.678 4162.701 3384.678 4162.763 3384.688 4162.819 3384.716 4162.863 3384.76 4162.891 3384.816 4162.901 3384.878 4162.901 3388.053 4162.891 3388.115 4162.863 3388.171 4162.819 3388.215 4162.763 3388.243 4162.701 3388.253" stroke-width="0" c_etype="pad_outer"/><polygon points="4159.299 3382.322 4159.237 3382.312 4159.181 3382.284 4159.137 3382.24 4159.109 3382.184 4159.099 3382.122 4159.099 3378.947 4159.109 3378.885 4159.137 3378.829 4159.181 3378.785 4159.237 3378.757 4159.299 3378.747 4162.701 3378.747 4162.763 3378.757 4162.819 3378.785 4162.863 3378.829 4162.891 3378.885 4162.901 3378.947 4162.901 3382.122 4162.891 3382.184 4162.863 3382.24 4162.819 3382.284 4162.763 3382.312 4162.701 3382.322" stroke-width="0" c_etype="pad_outer"/><polygon points="4151.878 3373.901 4151.816 3373.891 4151.76 3373.863 4151.716 3373.819 4151.688 3373.763 4151.678 3373.701 4151.678 3370.299 4151.688 3370.237 4151.716 3370.181 4151.76 3370.137 4151.816 3370.109 4151.878 3370.099 4155.053 3370.099 4155.115 3370.109 4155.171 3370.137 4155.215 3370.181 4155.243 3370.237 4155.253 3370.299 4155.253 3373.701 4155.243 3373.763 4155.215 3373.819 4155.171 3373.863 4155.115 3373.891 4155.053 3373.901" stroke-width="0" c_etype="pad_outer"/><polygon points="4145.947 3373.901 4145.885 3373.891 4145.829 3373.863 4145.785 3373.819 4145.757 3373.763 4145.747 3373.701 4145.747 3370.299 4145.757 3370.237 4145.785 3370.181 4145.829 3370.137 4145.885 3370.109 4145.947 3370.099 4149.122 3370.099 4149.184 3370.109 4149.24 3370.137 4149.284 3370.181 4149.312 3370.237 4149.322 3370.299 4149.322 3373.701 4149.312 3373.763 4149.284 3373.819 4149.24 3373.863 4149.184 3373.891 4149.122 3373.901" stroke-width="0" c_etype="pad_outer"/><polygon points="4174.63 3366.869 4174.568 3366.859 4174.512 3366.831 4174.468 3366.787 4174.44 3366.731 4174.43 3366.669 4174.43 3361.945 4174.44 3361.883 4174.468 3361.827 4174.512 3361.783 4174.568 3361.755 4174.63 3361.745 4178.37 3361.745 4178.432 3361.755 4178.488 3361.783 4178.532 3361.827 4178.56 3361.883 4178.57 3361.945 4178.57 3366.669 4178.56 3366.731 4178.532 3366.787 4178.488 3366.831 4178.432 3366.859 4178.37 3366.869" stroke-width="0" c_etype="pad_outer"/><polygon points="4174.63 3380.255 4174.568 3380.245 4174.512 3380.217 4174.468 3380.173 4174.44 3380.117 4174.43 3380.055 4174.43 3375.331 4174.44 3375.269 4174.468 3375.213 4174.512 3375.169 4174.568 3375.141 4174.63 3375.131 4178.37 3375.131 4178.432 3375.141 4178.488 3375.169 4178.532 3375.213 4178.56 3375.269 4178.57 3375.331 4178.57 3380.055 4178.56 3380.117 4178.532 3380.173 4178.488 3380.217 4178.432 3380.245 4178.37 3380.255" stroke-width="0" c_etype="pad_outer"/><polygon points="4146.098 3395.893 4146.036 3395.883 4145.98 3395.855 4145.936 3395.811 4145.908 3395.755 4145.898 3395.693 4145.898 3389.847 4145.908 3389.785 4145.936 3389.729 4145.98 3389.685 4146.036 3389.657 4146.098 3389.647 4152.902 3389.647 4152.964 3389.657 4153.02 3389.685 4153.064 3389.729 4153.092 3389.785 4153.102 3389.847 4153.102 3395.693 4153.092 3395.755 4153.064 3395.811 4153.02 3395.855 4152.964 3395.883 4152.902 3395.893" stroke-width="0" c_etype="pad_outer"/><polygon points="4146.098 3383.354 4146.036 3383.344 4145.98 3383.316 4145.936 3383.272 4145.908 3383.216 4145.898 3383.154 4145.898 3377.307 4145.908 3377.245 4145.936 3377.189 4145.98 3377.145 4146.036 3377.117 4146.098 3377.107 4152.902 3377.107 4152.964 3377.117 4153.02 3377.145 4153.064 3377.189 4153.092 3377.245 4153.102 3377.307 4153.102 3383.154 4153.092 3383.216 4153.064 3383.272 4153.02 3383.316 4152.964 3383.344 4152.902 3383.354" stroke-width="0" c_etype="pad_outer"/></g></mask></defs><g xmlns="http://www.w3.org/2000/svg" id="g1" class="photoview" transform="matrix(-1, 0, 0, 1, 8325, 0)"><g id="layer_other" class="shapeBox"><path d="M4143 3397,4143 3339,4181 3339,4181 3397z" stroke="none" id="boardOutlineReal" fill="#80785F"/><path d="M4143 3397,4143 3339,4181 3339,4181 3397z" stroke="none" id="topBoardSolderReal" mask="url(#topBoardSolderMask)" fill="#002966" display="none"/><g id="topSilkLayer" fill="#FFFFFF" stroke="#FFFFFF" display="none"><g c_partid="part_pcbtext" c_etype="" c_origin="4165,3353.5" c_rotation="270" c_mirror="0" id="gge41565_3" locked="0" layerid="3" c_shapetype="group" display="none"><path c_fontsize="3" c_fontfamily="" c_text="MT3608" d="M 4168.0273 3353.5 L 4165.1636 3353.5 M 4168.0273 3353.5 L 4165.1636 3354.5909 M 4168.0273 3355.6818 L 4165.1636 3354.5909 M 4168.0273 3355.6818 L 4165.1636 3355.6818 M 4168.0273 3357.5364 L 4165.1636 3357.5364 M 4168.0273 3356.5818 L 4168.0273 3358.4909 M 4168.0273 3359.6636 L 4168.0273 3361.1636 L 4166.9364 3360.3455 L 4166.9364 3360.7545 L 4166.8 3361.0273 L 4166.6636 3361.1636 L 4166.2545 3361.3 L 4165.9818 3361.3 L 4165.5727 3361.1636 L 4165.3 3360.8909 L 4165.1636 3360.4818 L 4165.1636 3360.0727 L 4165.3 3359.6636 L 4165.4364 3359.5273 L 4165.7091 3359.3909 M 4167.6182 3363.8364 L 4167.8909 3363.7 L 4168.0273 3363.2909 L 4168.0273 3363.0182 L 4167.8909 3362.6091 L 4167.4818 3362.3364 L 4166.8 3362.2 L 4166.1182 3362.2 L 4165.5727 3362.3364 L 4165.3 3362.6091 L 4165.1636 3363.0182 L 4165.1636 3363.1545 L 4165.3 3363.5636 L 4165.5727 3363.8364 L 4165.9818 3363.9727 L 4166.1182 3363.9727 L 4166.5273 3363.8364 L 4166.8 3363.5636 L 4166.9364 3363.1545 L 4166.9364 3363.0182 L 4166.8 3362.6091 L 4166.5273 3362.3364 L 4166.1182 3362.2 M 4168.0273 3365.6909 L 4167.8909 3365.2818 L 4167.4818 3365.0091 L 4166.8 3364.8727 L 4166.3909 3364.8727 L 4165.7091 3365.0091 L 4165.3 3365.2818 L 4165.1636 3365.6909 L 4165.1636 3365.9636 L 4165.3 3366.3727 L 4165.7091 3366.6455 L 4166.3909 3366.7818 L 4166.8 3366.7818 L 4167.4818 3366.6455 L 4167.8909 3366.3727 L 4168.0273 3365.9636 L 4168.0273 3365.6909 M 4168.0273 3368.3636 L 4167.8909 3367.9545 L 4167.6182 3367.8182 L 4167.3455 3367.8182 L 4167.0727 3367.9545 L 4166.9364 3368.2273 L 4166.8 3368.7727 L 4166.6636 3369.1818 L 4166.3909 3369.4545 L 4166.1182 3369.5909 L 4165.7091 3369.5909 L 4165.4364 3369.4545 L 4165.3 3369.3182 L 4165.1636 3368.9091 L 4165.1636 3368.3636 L 4165.3 3367.9545 L 4165.4364 3367.8182 L 4165.7091 3367.6818 L 4166.1182 3367.6818 L 4166.3909 3367.8182 L 4166.6636 3368.0909 L 4166.8 3368.5 L 4166.9364 3369.0455 L 4167.0727 3369.3182 L 4167.3455 3369.4545 L 4167.6182 3369.4545 L 4167.8909 3369.3182 L 4168.0273 3368.9091 L 4168.0273 3368.3636" fill="none" stroke-width="0.6" c_note="note_name" style=""/></g><g c_partid="part_pcbtext" c_etype="" c_origin="4167,3381" c_rotation="270" c_mirror="0" id="gge41877_3" locked="0" layerid="3" c_shapetype="group" display="none"><path c_fontsize="3" c_fontfamily="" c_text="10k" d="M 4169.4818 3381 L 4169.6182 3381.2727 L 4170.0273 3381.6818 L 4167.1636 3381.6818 M 4170.0273 3383.4 L 4169.8909 3382.9909 L 4169.4818 3382.7182 L 4168.8 3382.5818 L 4168.3909 3382.5818 L 4167.7091 3382.7182 L 4167.3 3382.9909 L 4167.1636 3383.4 L 4167.1636 3383.6727 L 4167.3 3384.0818 L 4167.7091 3384.3545 L 4168.3909 3384.4909 L 4168.8 3384.4909 L 4169.4818 3384.3545 L 4169.8909 3384.0818 L 4170.0273 3383.6727 L 4170.0273 3383.4 M 4170.0273 3385.3909 L 4167.1636 3385.3909 M 4169.0727 3386.7545 L 4167.7091 3385.3909 M 4168.2545 3385.9364 L 4167.1636 3386.8909" fill="none" stroke-width="0.6" c_note="note_name" style=""/></g><g c_partid="part_pcbtext" c_etype="" c_origin="4159.5,3378.5" c_rotation="270" c_mirror="0" id="gge41796_3" locked="0" layerid="3" c_shapetype="group" display="none"><path c_fontsize="3" c_fontfamily="" c_text="100k" d="M 4161.9818 3378.5 L 4162.1182 3378.7727 L 4162.5273 3379.1818 L 4159.6636 3379.1818 M 4162.5273 3380.9 L 4162.3909 3380.4909 L 4161.9818 3380.2182 L 4161.3 3380.0818 L 4160.8909 3380.0818 L 4160.2091 3380.2182 L 4159.8 3380.4909 L 4159.6636 3380.9 L 4159.6636 3381.1727 L 4159.8 3381.5818 L 4160.2091 3381.8545 L 4160.8909 3381.9909 L 4161.3 3381.9909 L 4161.9818 3381.8545 L 4162.3909 3381.5818 L 4162.5273 3381.1727 L 4162.5273 3380.9 M 4162.5273 3383.7091 L 4162.3909 3383.3 L 4161.9818 3383.0273 L 4161.3 3382.8909 L 4160.8909 3382.8909 L 4160.2091 3383.0273 L 4159.8 3383.3 L 4159.6636 3383.7091 L 4159.6636 3383.9818 L 4159.8 3384.3909 L 4160.2091 3384.6636 L 4160.8909 3384.8 L 4161.3 3384.8 L 4161.9818 3384.6636 L 4162.3909 3384.3909 L 4162.5273 3383.9818 L 4162.5273 3383.7091 M 4162.5273 3385.7 L 4159.6636 3385.7 M 4161.5727 3387.0636 L 4160.2091 3385.7 M 4160.7545 3386.2455 L 4159.6636 3387.2" fill="none" stroke-width="0.6" c_note="note_name" style=""/></g><g c_partid="part_pcbtext" c_etype="" c_origin="4153,3370.5" c_rotation="180" c_mirror="0" id="gge41715_3" locked="0" layerid="3" c_shapetype="group" display="none"><path c_fontsize="3" c_fontfamily="" c_text="15k" d="M 4153 3372.9818 L 4152.7273 3373.1182 L 4152.3182 3373.5273 L 4152.3182 3370.6636 M 4149.7818 3373.5273 L 4151.1455 3373.5273 L 4151.2818 3372.3 L 4151.1455 3372.4364 L 4150.7364 3372.5727 L 4150.3273 3372.5727 L 4149.9182 3372.4364 L 4149.6455 3372.1636 L 4149.5091 3371.7545 L 4149.5091 3371.4818 L 4149.6455 3371.0727 L 4149.9182 3370.8 L 4150.3273 3370.6636 L 4150.7364 3370.6636 L 4151.1455 3370.8 L 4151.2818 3370.9364 L 4151.4182 3371.2091 M 4148.6091 3373.5273 L 4148.6091 3370.6636 M 4147.2455 3372.5727 L 4148.6091 3371.2091 M 4148.0636 3371.7545 L 4147.1091 3370.6636" fill="none" stroke-width="0.6" c_note="note_name" style=""/></g></g><path d="M4143 3397,4143 3339,4181 3339,4181 3397z" stroke="none" id="bottomBoardSolderReal" mask="url(#bottomBoardSolderMask)" fill="#002966"/><g id="bottomSignalReal" fill="#DCAA14" stroke="#DCAA14"><path d="M 4170.11343 3364.13857 L 4169.94656 3364.08258 4169.81988 3363.96038 4169.75792 3363.79564 4169.77267 3363.62025 4169.88488 3363.26474 4169.9172 3362.93655 4169.9172 3359.03885 4169.88465 3358.70841 4169.794 3358.40956 4169.64678 3358.13414 4169.44867 3357.89273 4169.20726 3357.69462 4168.93184 3357.5474 4168.63299 3357.45675 4168.30255 3357.4242 4166.23195 3357.4242 4166.07888 3357.39375 4165.94911 3357.30704 4165.8624 3357.17727 4165.83195 3357.0242 4165.83195 3349.78709 4165.82968 3349.64483 4165.79517 3349.2078 4165.77641 3349.07623 4165.68739 3348.64697 4165.65229 3348.51879 4165.51018 3348.10407 4165.45964 3347.98215 4165.3059 3347.67218 4165.26425 3347.49445 4165.26425 3344.0984 4165.2317 3343.76796 4165.14105 3343.46911 4164.99383 3343.19369 4164.79572 3342.95228 4164.55431 3342.75417 4164.27889 3342.60695 4163.98004 3342.5163 4163.6496 3342.48375 4157.7834 3342.48375 4157.45296 3342.5163 4157.15411 3342.60695 4156.87869 3342.75417 4156.63728 3342.95228 4156.43917 3343.19369 4156.29195 3343.46911 4156.2013 3343.76796 4156.16943 3344.09146 4156.12865 3344.23209 4156.03998 3344.34863 4155.91532 3344.42545 4155.77136 3344.45225 4150.02904 3344.45225 4149.88934 3344.45444 4149.4497 3344.48905 4149.32071 3344.5074 4148.88887 3344.59683 4148.7632 3344.63121 4148.34597 3344.77406 4148.2256 3344.82392 4147.82957 3345.01793 4147.71639 3345.08249 4147.3478 3345.32461 4147.24456 3345.40213 4146.99865 3345.61467 4146.87663 3345.68692 4146.73708 3345.71205 4146.1181 3345.71205 4145.78766 3345.7446 4145.48881 3345.83525 4145.21339 3345.98247 4144.97198 3346.18058 4144.65828 3346.55677 4144.49804 3346.6278 4144.32281 3346.6235 4144.16624 3346.54469 4144.0584 3346.40651 4144.02 3346.23548 4144.02 3340.42 4144.05045 3340.26693 4144.13716 3340.13716 4144.26693 3340.05045 4144.42 3340.02 4179.58 3340.02 4179.73307 3340.05045 4179.86284 3340.13716 4179.94955 3340.26693 4179.98 3340.42 4179.98 3342.61315 4179.95201 3342.76015 4179.87195 3342.88658 4179.75102 3342.97474 4179.60616 3343.01229 4179.45764 3342.99397 4179.32624 3342.92235 4179.12131 3342.75417 4178.84589 3342.60695 4178.54704 3342.5163 4178.2166 3342.48375 4172.3504 3342.48375 4172.01996 3342.5163 4171.72111 3342.60695 4171.44569 3342.75417 4171.20428 3342.95228 4171.00617 3343.19369 4170.85895 3343.46911 4170.7683 3343.76796 4170.73575 3344.0984 4170.73575 3353.9016 4170.7683 3354.23204 4170.85895 3354.53089 4171.00617 3354.80631 4171.20428 3355.04772 4171.44569 3355.24583 4171.72111 3355.39305 4172.01996 3355.4837 4172.18201 3355.49966 4172.32264 3355.54045 4172.43918 3355.62911 4172.516 3355.75378 4172.5428 3355.89774 4172.5428 3361.75196 4172.51235 3361.90504 4172.42564 3362.03481 4170.43696 3364.02349 4170.28817 3364.11751 4170.11343 3364.13857 Z M 4172.28128 3384.81566 L 4172.12192 3384.83985 4171.96594 3384.79917 4171.83869 3384.70023 4171.76082 3384.5591 4171.65619 3384.2224 4171.63924 3384.07448 4171.67756 3383.9306 4171.76585 3383.81071 4171.89188 3383.73141 4172.03817 3383.7037 4172.1428 3383.7037 4172.29587 3383.73415 4172.42564 3383.82086 4172.51235 3383.95063 4172.5428 3384.1037 4172.5428 3384.4404 4172.51032 3384.59828 4172.41816 3384.73053 4172.28128 3384.81566 Z M 4171.86953 3389.5428 L 4171.70923 3389.50928 4171.5758 3389.41432 4171.49161 3389.27385 4171.47076 3389.11142 4171.51676 3388.95424 4171.6726 3388.66269 4171.76002 3388.37449 4171.83719 3388.23254 4171.96421 3388.13269 4172.12037 3388.09123 4172.28019 3388.11494 4172.4176 3388.19994 4172.51017 3388.33236 4172.5428 3388.4906 4172.5428 3389.1428 4172.51235 3389.29587 4172.42564 3389.42564 4172.29587 3389.51235 4172.1428 3389.5428 4171.86953 3389.5428 Z M 4157.79077 3389.50928 L 4157.63047 3389.5428 4157.16747 3389.5428 4157.05136 3389.52558 4156.94524 3389.47539 4156.74817 3389.34371 4156.28403 3389.11482 4155.79398 3388.94847 4155.28641 3388.84751 4154.75691 3388.8128 4154.28424 3388.8128 4154.14948 3388.78942 4154.03048 3388.722 4153.78661 3388.52187 4153.51119 3388.37465 4153.21234 3388.284 4152.8819 3388.25145 4146.1181 3388.25145 4145.78766 3388.284 4145.48881 3388.37465 4145.21339 3388.52187 4144.97198 3388.71998 4144.65828 3389.09617 4144.49804 3389.1672 4144.32281 3389.1629 4144.16624 3389.08409 4144.0584 3388.94591 4144.02 3388.77488 4144.02 3354.22512 4144.0584 3354.05409 4144.16624 3353.91591 4144.32281 3353.8371 4144.49804 3353.8328 4144.65828 3353.90383 4144.97198 3354.28002 4145.21339 3354.47813 4145.48881 3354.62535 4145.78766 3354.716 4146.1181 3354.74855 4152.8819 3354.74855 4153.21234 3354.716 4153.51119 3354.62535 4153.78661 3354.47813 4154.02802 3354.28002 4154.22613 3354.03861 4154.37549 3353.75919 4154.46452 3353.64701 4154.58736 3353.57339 4154.72826 3353.54775 4155.77136 3353.54775 4155.91532 3353.57455 4156.03998 3353.65137 4156.12865 3353.76791 4156.16943 3353.90854 4156.2013 3354.23204 4156.29195 3354.53089 4156.43917 3354.80631 4156.64565 3355.05792 4156.71307 3355.17692 4156.73645 3355.31167 4156.73645 3360.48743 4156.7731 3361.06989 4156.88009 3361.63078 4157.06262 3362.19255 4157.0822 3362.31616 4157.0822 3362.93655 4157.11475 3363.26699 4157.2054 3363.56584 4157.35262 3363.84126 4157.55073 3364.08267 4157.79214 3364.28078 4158.06756 3364.428 4158.36641 3364.51865 4158.69685 3364.5512 4159.13088 3364.5512 4159.23035 3364.56377 4159.3482 3364.61421 4159.87911 3364.82442 4160.43218 3364.96642 4160.99869 3365.03799 4161.56971 3365.03799 4162.13622 3364.96642 4162.68929 3364.82442 4163.2202 3364.61421 4163.33805 3364.56377 4163.43752 3364.5512 4164.56275 3364.5512 4164.89319 3364.51865 4165.22974 3364.41656 4165.39335 3364.39934 4165.50946 3364.41656 4165.84601 3364.51865 4166.17645 3364.5512 4168.30255 3364.5512 4168.63074 3364.51888 4168.98625 3364.40667 4169.16164 3364.39192 4169.32638 3364.45388 4169.44858 3364.58056 4169.50457 3364.74743 4169.48351 3364.92217 4169.38949 3365.07096 4166.09507 3368.36538 4165.98325 3368.44413 4165.54716 3368.5718 4165.27174 3368.71902 4165.03033 3368.91713 4164.83222 3369.15854 4164.685 3369.43396 4164.59435 3369.73281 4164.5618 3370.06325 4164.5618 3370.52187 4164.46893 3371.02156 4164.45606 3371.1288 4164.4365 3371.51025 4164.4365 3372.75444 4164.47062 3373.2532 4164.55343 3373.65174 4164.5618 3373.96095 4164.59435 3374.29139 4164.685 3374.59024 4164.83222 3374.86566 4165.03033 3375.10707 4165.27174 3375.30518 4165.54716 3375.4524 4165.66374 3375.48776 4165.80006 3375.56026 4165.94554 3375.67861 4166.36099 3375.93125 4166.80697 3376.12497 4167.27517 3376.25615 4167.75688 3376.32236 4168.24312 3376.32236 4168.72483 3376.25615 4169.19303 3376.12497 4169.63901 3375.93125 4170.05446 3375.67861 4170.43164 3375.37175 4170.76352 3375.01639 4171.04392 3374.61915 4171.26763 3374.18743 4171.43046 3373.72927 4171.52938 3373.2532 4171.537 3373.14187 4171.57196 3373.00357 4171.65322 3372.88633 4176.15809 3368.38146 4176.28786 3368.29475 4176.44094 3368.2643 4178.35045 3368.2643 4178.68089 3368.23175 4178.97974 3368.1411 4179.25516 3367.99388 4179.32624 3367.93555 4179.45764 3367.86393 4179.60616 3367.84561 4179.75102 3367.88316 4179.87195 3367.97132 4179.95201 3368.09775 4179.98 3368.24475 4179.98 3373.75525 4179.95201 3373.90225 4179.87195 3374.02868 4179.75102 3374.11684 4179.60616 3374.15439 4179.45764 3374.13607 4179.32624 3374.06445 4179.25516 3374.00612 4178.97974 3373.8589 4178.68089 3373.76825 4178.35045 3373.7357 4174.64955 3373.7357 4174.31911 3373.76825 4174.02026 3373.8589 4173.74484 3374.00612 4173.50343 3374.20423 4173.30532 3374.44564 4173.1581 3374.72106 4173.06745 3375.01991 4173.0349 3375.35035 4173.0349 3375.70036 4172.99365 3375.87727 4172.84482 3376.17907 4172.67847 3376.66912 4172.6121 3377.00279 4172.57255 3377.11332 4172.46328 3377.24694 4172.33351 3377.33365 4172.18044 3377.3641 4170.32416 3377.3641 4170.18115 3377.35195 4166.81885 3377.35195 4166.48841 3377.3845 4166.18956 3377.47515 4165.91414 3377.62237 4165.67273 3377.82048 4165.47462 3378.06189 4165.3274 3378.33731 4165.23675 3378.63616 4165.2042 3378.9666 4165.2042 3382.1024 4165.23663 3382.43165 4165.34391 3382.77792 4165.36074 3382.92579 4165.32235 3383.06958 4165.23405 3383.18938 4165.10806 3383.26861 4164.96183 3383.2963 4164.53817 3383.2963 4164.39194 3383.26861 4164.26595 3383.18938 4164.17765 3383.06958 4164.13926 3382.92579 4164.15609 3382.77792 4164.26337 3382.43165 4164.2958 3382.1024 4164.2958 3378.9666 4164.26325 3378.63616 4164.1726 3378.33731 4164.02538 3378.06189 4163.82727 3377.82048 4163.58586 3377.62237 4163.31044 3377.47515 4163.01159 3377.3845 4162.83374 3377.36698 4162.69311 3377.3262 4162.57657 3377.23753 4162.49975 3377.11286 4162.47295 3376.96891 4162.47295 3372.01497 4162.4376 3371.52829 4162.4376 3370.06325 4162.40505 3369.73281 4162.3144 3369.43396 4162.16718 3369.15854 4161.96907 3368.91713 4161.72766 3368.71902 4161.45224 3368.5718 4161.15339 3368.48115 4160.82295 3368.4486 4158.69685 3368.4486 4158.36641 3368.48115 4158.06756 3368.5718 4157.79214 3368.71902 4157.52743 3368.93625 4157.40843 3369.00367 4157.27368 3369.02705 4156.1364 3369.02705 4156.03921 3369.01506 4155.94784 3368.97982 4155.66269 3368.8274 4155.36384 3368.73675 4155.0334 3368.7042 4151.8976 3368.7042 4151.56716 3368.73675 4151.26831 3368.8274 4150.99289 3368.97462 4150.75148 3369.17273 4150.55337 3369.41414 4150.40615 3369.68956 4150.3155 3369.98841 4150.28295 3370.31885 4150.28295 3373.68115 4150.3155 3374.01159 4150.40615 3374.31044 4150.55337 3374.58586 4150.75148 3374.82727 4150.99289 3375.02538 4151.26831 3375.1726 4151.56716 3375.26325 4151.8976 3375.2958 4155.0334 3375.2958 4155.36384 3375.26325 4155.66269 3375.1726 4155.93849 3375.02518 4156.09567 3374.97918 4156.2581 3375.00003 4156.39857 3375.08422 4156.49353 3375.21765 4156.52705 3375.37795 4156.52705 3379.27825 4156.52907 3379.38593 4156.56158 3379.73245 4156.57774 3379.82756 4156.66153 3380.16537 4156.69169 3380.25701 4156.82489 3380.57855 4156.86838 3380.66468 4157.04801 3380.96277 4157.10385 3381.04146 4157.32428 3381.30749 4157.58872 3381.57508 4157.6742 3381.70427 4157.7042 3381.85624 4157.7042 3382.1024 4157.73675 3382.43284 4157.8274 3382.73169 4157.97462 3383.00711 4158.17087 3383.24624 4158.23828 3383.36524 4158.26166 3383.5 4158.23828 3383.63476 4158.17087 3383.75376 4157.97462 3383.99289 4157.8274 3384.26831 4157.73675 3384.56716 4157.7042 3384.8976 4157.7042 3388.0334 4157.73675 3388.36384 4157.8274 3388.66269 4157.98324 3388.95424 4158.02924 3389.11142 4158.00839 3389.27385 4157.9242 3389.41432 4157.79077 3389.50928 Z M 4179.73307 3395.94955 L 4179.58 3395.98 4179.08201 3395.98 4178.92894 3395.94955 4178.79917 3395.86284 4178.71246 3395.73307 4178.68201 3395.58 4178.71246 3395.42693 4178.79917 3395.29716 4179.29716 3394.79917 4179.42693 3394.71246 4179.58 3394.68201 4179.73307 3394.71246 4179.86284 3394.79917 4179.94955 3394.92894 4179.98 3395.08201 4179.98 3395.58 4179.94955 3395.73307 4179.86284 3395.86284 4179.73307 3395.94955 Z " stroke-width="0" id="gge42075_2"/><polyline points="4161 3349.5 4161.2842 3349.7839 4161.2842 3360.5" stroke-width="5.9055" c_shapetype="line" stroke-linecap="round" fill="none" layerid="2" net="" id="gge42099_2" locked="0"/><polyline points="4168.5 3386.4661 4161 3386.4661" stroke-width="3.1496" c_shapetype="line" stroke-linecap="round" fill="none" layerid="2" net="" id="gge42096_2" locked="0"/><polyline points="4176.5 3377.693 4173.6591 3380.5339 4168.5 3380.5339" stroke-width="3.1496" c_shapetype="line" stroke-linecap="round" fill="none" layerid="2" net="" id="gge42093_2" locked="0"/><polyline points="4153.466 3372 4159.28 3372 4159.29 3372.01" stroke-width="2.7559" c_shapetype="line" stroke-linecap="round" fill="none" layerid="2" net="" id="gge42090_2" locked="0"/><polyline points="4149 3350.0259 4150.0259 3349 4160.7158 3349" stroke-width="5.9055" c_shapetype="line" stroke-linecap="round" fill="none" layerid="2" net="" id="gge42102_2" locked="0"/><polyline points="4163.5 3372.012 4163.5 3369 4161.5 3367 4154.0259 3367 4149 3361.9741" stroke-width="2.7559" c_shapetype="line" stroke-linecap="round" fill="none" layerid="2" net="" id="gge42084_2" locked="0"/><polyline points="4175.28 3349 4176.5 3351.5 4176.5 3364" stroke-width="4.7244" c_shapetype="line" stroke-linecap="round" fill="none" layerid="2" net="" id="gge42078_2" locked="0"/><polyline points="4177 3362.5 4168 3371.5 4168 3372.7681" stroke-width="3.937" c_shapetype="line" stroke-linecap="round" fill="none" layerid="2" net="" id="gge42105_2" locked="0"/><polyline points="4149.5 3392.77 4154.77 3392.77 4155.5 3393.5 4175 3393.5 4176.5 3392 4176.5 3377.6931" stroke-width="4.7244" c_shapetype="line" stroke-linecap="round" fill="none" layerid="2" net="" id="gge42081_2" locked="0"/><polyline points="4159.5 3372 4159.5 3379.282 4160.7402 3380.522" stroke-width="2.7559" c_shapetype="line" stroke-linecap="round" fill="none" layerid="2" net="" id="gge42087_2" locked="0"/><g c_partid="part_pad" c_etype="pinpart" layerid="2" id="gge45832_2" c_origin="4149.5,3350.23" net="" c_rotation="270" c_width="5.8465" c_height="6.8031"><polygon points="4146.0984 3353.1535 4152.9016 3353.1535 4152.9016 3347.3071 4146.0984 3347.3071" stroke-width="0"/></g><g c_partid="part_pad" c_etype="pinpart" layerid="2" id="gge45847_2" c_origin="4149.5,3362.77" net="" c_rotation="270" c_width="5.8465" c_height="6.8031"><polygon points="4146.0984 3359.8465 4152.9016 3359.8465 4152.9016 3365.6929 4146.0984 3365.6929" stroke-width="0"/></g><g c_partid="part_pad" c_etype="pinpart" layerid="2" id="gge41940_2" c_origin="4160.716,3349" net="" c_rotation="270" c_width="9.8425" c_height="5.9055"><polygon points="4163.6689 3353.9212 4163.6689 3344.0787 4157.7633 3344.0787 4157.7633 3353.9212" stroke-width="0"/></g><g c_partid="part_pad" c_etype="pinpart" layerid="2" id="gge41958_2" c_origin="4175.283,3349" net="" c_rotation="270" c_width="9.8425" c_height="5.9055"><polygon points="4178.2358 3353.9212 4178.2358 3344.0787 4172.3303 3344.0787 4172.3303 3353.9212" stroke-width="0"/></g><g c_partid="part_pad" c_etype="pinpart" layerid="2" id="gge41571_2" c_origin="4159.76,3372.012" net="" c_rotation="90" c_width="3.937" c_height="2.1654"><polygon points="4158.677 3370.0434 4158.677 3373.9804 4160.8424 3373.9804 4160.8424 3370.0434" stroke-width="0"/></g><g c_partid="part_pad" c_etype="pinpart" layerid="2" id="gge41589_2" c_origin="4163.5,3372.012" net="" c_rotation="90" c_width="3.937" c_height="2.1654"><polygon points="4162.417 3370.0434 4162.417 3373.9804 4164.5824 3373.9804 4164.5824 3370.0434" stroke-width="0"/></g><g c_partid="part_pad" c_etype="pinpart" layerid="2" id="gge41607_2" c_origin="4167.24,3372.012" net="" c_rotation="90" c_width="3.937" c_height="2.1654"><polygon points="4166.157 3370.0434 4166.157 3373.9804 4168.3224 3373.9804 4168.3224 3370.0434" stroke-width="0"/></g><g c_partid="part_pad" c_etype="pinpart" layerid="2" id="gge41625_2" c_origin="4167.24,3360.988" net="" c_rotation="90" c_width="3.937" c_height="2.1654"><polygon points="4166.157 3359.0194 4166.157 3362.9564 4168.3224 3362.9564 4168.3224 3359.0194" stroke-width="0"/></g><g c_partid="part_pad" c_etype="pinpart" layerid="2" id="gge41640_2" c_origin="4163.5,3360.988" net="" c_rotation="90" c_width="3.937" c_height="2.1654"><polygon points="4162.417 3359.0194 4162.417 3362.9564 4164.5824 3362.9564 4164.5824 3359.0194" stroke-width="0"/></g><g c_partid="part_pad" c_etype="pinpart" layerid="2" id="gge41658_2" c_origin="4159.76,3360.988" net="" c_rotation="90" c_width="3.937" c_height="2.1654"><polygon points="4158.677 3359.0194 4158.677 3362.9564 4160.8424 3362.9564 4160.8424 3359.0194" stroke-width="0"/></g><g c_partid="part_pad" c_etype="pinpart" layerid="2" id="gge41883_2" c_origin="4168.5,3380.534" net="" c_rotation="270" c_width="3.1751" c_height="3.4016"><polygon points="4166.7992 3382.122 4170.2008 3382.122 4170.2008 3378.9469 4166.7992 3378.9469" stroke-width="0"/></g><g c_partid="part_pad" c_etype="pinpart" layerid="2" id="gge41901_2" c_origin="4168.5,3386.466" net="" c_rotation="270" c_width="3.1751" c_height="3.4016"><polygon points="4166.7992 3384.878 4170.2008 3384.878 4170.2008 3388.0531 4166.7992 3388.0531" stroke-width="0"/></g><g c_partid="part_pad" c_etype="pinpart" layerid="2" id="gge41802_2" c_origin="4161,3386.466" net="" c_rotation="90" c_width="3.1751" c_height="3.4016"><polygon points="4162.7008 3384.878 4159.2992 3384.878 4159.2992 3388.0531 4162.7008 3388.0531" stroke-width="0"/></g><g c_partid="part_pad" c_etype="pinpart" layerid="2" id="gge41820_2" c_origin="4161,3380.534" net="" c_rotation="90" c_width="3.1751" c_height="3.4016"><polygon points="4162.7008 3382.122 4159.2992 3382.122 4159.2992 3378.9469 4162.7008 3378.9469" stroke-width="0"/></g><g c_partid="part_pad" c_etype="pinpart" layerid="2" id="gge41721_2" c_origin="4153.466,3372" net="" c_rotation="180" c_width="3.1751" c_height="3.4016"><polygon points="4151.878 3370.2992 4151.878 3373.7008 4155.0531 3373.7008 4155.0531 3370.2992" stroke-width="0"/></g><g c_partid="part_pad" c_etype="pinpart" layerid="2" id="gge41739_2" c_origin="4147.534,3372" net="" c_rotation="180" c_width="3.1751" c_height="3.4016"><polygon points="4149.122 3370.2992 4149.122 3373.7008 4145.9469 3373.7008 4145.9469 3370.2992" stroke-width="0"/></g><g c_partid="part_pad" c_etype="pinpart" layerid="2" id="gge45622_2" c_origin="4176.5,3364.307" net="" c_rotation="270" c_width="4.7244" c_height="3.7402"><polygon points="4178.3701 3366.6692 4178.3701 3361.9448 4174.6299 3361.9448 4174.6299 3366.6692" stroke-width="0"/></g><g c_partid="part_pad" c_etype="pinpart" layerid="2" id="gge45637_2" c_origin="4176.5,3377.693" net="" c_rotation="270" c_width="4.7244" c_height="3.7402"><polygon points="4178.3701 3380.0552 4178.3701 3375.3308 4174.6299 3375.3308 4174.6299 3380.0552" stroke-width="0"/></g><g c_partid="part_pad" c_etype="pinpart" layerid="2" id="gge45733_2" c_origin="4149.5,3392.77" net="" c_rotation="90" c_width="5.8465" c_height="6.8031"><polygon points="4152.9016 3389.8465 4146.0984 3389.8465 4146.0984 3395.6929 4152.9016 3395.6929" stroke-width="0"/></g><g c_partid="part_pad" c_etype="pinpart" layerid="2" id="gge45748_2" c_origin="4149.5,3380.23" net="" c_rotation="90" c_width="5.8465" c_height="6.8031"><polygon points="4152.9016 3383.1535 4146.0984 3383.1535 4146.0984 3377.3071 4152.9016 3377.3071" stroke-width="0"/></g></g><g id="bottomSignalSolderReal" mask="url(#bottomSignalSolderMask)" fill="#005CB6" stroke="#005CB6"><path d="M 4170.11343 3364.13857 L 4169.94656 3364.08258 4169.81988 3363.96038 4169.75792 3363.79564 4169.77267 3363.62025 4169.88488 3363.26474 4169.9172 3362.93655 4169.9172 3359.03885 4169.88465 3358.70841 4169.794 3358.40956 4169.64678 3358.13414 4169.44867 3357.89273 4169.20726 3357.69462 4168.93184 3357.5474 4168.63299 3357.45675 4168.30255 3357.4242 4166.23195 3357.4242 4166.07888 3357.39375 4165.94911 3357.30704 4165.8624 3357.17727 4165.83195 3357.0242 4165.83195 3349.78709 4165.82968 3349.64483 4165.79517 3349.2078 4165.77641 3349.07623 4165.68739 3348.64697 4165.65229 3348.51879 4165.51018 3348.10407 4165.45964 3347.98215 4165.3059 3347.67218 4165.26425 3347.49445 4165.26425 3344.0984 4165.2317 3343.76796 4165.14105 3343.46911 4164.99383 3343.19369 4164.79572 3342.95228 4164.55431 3342.75417 4164.27889 3342.60695 4163.98004 3342.5163 4163.6496 3342.48375 4157.7834 3342.48375 4157.45296 3342.5163 4157.15411 3342.60695 4156.87869 3342.75417 4156.63728 3342.95228 4156.43917 3343.19369 4156.29195 3343.46911 4156.2013 3343.76796 4156.16943 3344.09146 4156.12865 3344.23209 4156.03998 3344.34863 4155.91532 3344.42545 4155.77136 3344.45225 4150.02904 3344.45225 4149.88934 3344.45444 4149.4497 3344.48905 4149.32071 3344.5074 4148.88887 3344.59683 4148.7632 3344.63121 4148.34597 3344.77406 4148.2256 3344.82392 4147.82957 3345.01793 4147.71639 3345.08249 4147.3478 3345.32461 4147.24456 3345.40213 4146.99865 3345.61467 4146.87663 3345.68692 4146.73708 3345.71205 4146.1181 3345.71205 4145.78766 3345.7446 4145.48881 3345.83525 4145.21339 3345.98247 4144.97198 3346.18058 4144.65828 3346.55677 4144.49804 3346.6278 4144.32281 3346.6235 4144.16624 3346.54469 4144.0584 3346.40651 4144.02 3346.23548 4144.02 3340.42 4144.05045 3340.26693 4144.13716 3340.13716 4144.26693 3340.05045 4144.42 3340.02 4179.58 3340.02 4179.73307 3340.05045 4179.86284 3340.13716 4179.94955 3340.26693 4179.98 3340.42 4179.98 3342.61315 4179.95201 3342.76015 4179.87195 3342.88658 4179.75102 3342.97474 4179.60616 3343.01229 4179.45764 3342.99397 4179.32624 3342.92235 4179.12131 3342.75417 4178.84589 3342.60695 4178.54704 3342.5163 4178.2166 3342.48375 4172.3504 3342.48375 4172.01996 3342.5163 4171.72111 3342.60695 4171.44569 3342.75417 4171.20428 3342.95228 4171.00617 3343.19369 4170.85895 3343.46911 4170.7683 3343.76796 4170.73575 3344.0984 4170.73575 3353.9016 4170.7683 3354.23204 4170.85895 3354.53089 4171.00617 3354.80631 4171.20428 3355.04772 4171.44569 3355.24583 4171.72111 3355.39305 4172.01996 3355.4837 4172.18201 3355.49966 4172.32264 3355.54045 4172.43918 3355.62911 4172.516 3355.75378 4172.5428 3355.89774 4172.5428 3361.75196 4172.51235 3361.90504 4172.42564 3362.03481 4170.43696 3364.02349 4170.28817 3364.11751 4170.11343 3364.13857 Z M 4172.28128 3384.81566 L 4172.12192 3384.83985 4171.96594 3384.79917 4171.83869 3384.70023 4171.76082 3384.5591 4171.65619 3384.2224 4171.63924 3384.07448 4171.67756 3383.9306 4171.76585 3383.81071 4171.89188 3383.73141 4172.03817 3383.7037 4172.1428 3383.7037 4172.29587 3383.73415 4172.42564 3383.82086 4172.51235 3383.95063 4172.5428 3384.1037 4172.5428 3384.4404 4172.51032 3384.59828 4172.41816 3384.73053 4172.28128 3384.81566 Z M 4171.86953 3389.5428 L 4171.70923 3389.50928 4171.5758 3389.41432 4171.49161 3389.27385 4171.47076 3389.11142 4171.51676 3388.95424 4171.6726 3388.66269 4171.76002 3388.37449 4171.83719 3388.23254 4171.96421 3388.13269 4172.12037 3388.09123 4172.28019 3388.11494 4172.4176 3388.19994 4172.51017 3388.33236 4172.5428 3388.4906 4172.5428 3389.1428 4172.51235 3389.29587 4172.42564 3389.42564 4172.29587 3389.51235 4172.1428 3389.5428 4171.86953 3389.5428 Z M 4157.79077 3389.50928 L 4157.63047 3389.5428 4157.16747 3389.5428 4157.05136 3389.52558 4156.94524 3389.47539 4156.74817 3389.34371 4156.28403 3389.11482 4155.79398 3388.94847 4155.28641 3388.84751 4154.75691 3388.8128 4154.28424 3388.8128 4154.14948 3388.78942 4154.03048 3388.722 4153.78661 3388.52187 4153.51119 3388.37465 4153.21234 3388.284 4152.8819 3388.25145 4146.1181 3388.25145 4145.78766 3388.284 4145.48881 3388.37465 4145.21339 3388.52187 4144.97198 3388.71998 4144.65828 3389.09617 4144.49804 3389.1672 4144.32281 3389.1629 4144.16624 3389.08409 4144.0584 3388.94591 4144.02 3388.77488 4144.02 3354.22512 4144.0584 3354.05409 4144.16624 3353.91591 4144.32281 3353.8371 4144.49804 3353.8328 4144.65828 3353.90383 4144.97198 3354.28002 4145.21339 3354.47813 4145.48881 3354.62535 4145.78766 3354.716 4146.1181 3354.74855 4152.8819 3354.74855 4153.21234 3354.716 4153.51119 3354.62535 4153.78661 3354.47813 4154.02802 3354.28002 4154.22613 3354.03861 4154.37549 3353.75919 4154.46452 3353.64701 4154.58736 3353.57339 4154.72826 3353.54775 4155.77136 3353.54775 4155.91532 3353.57455 4156.03998 3353.65137 4156.12865 3353.76791 4156.16943 3353.90854 4156.2013 3354.23204 4156.29195 3354.53089 4156.43917 3354.80631 4156.64565 3355.05792 4156.71307 3355.17692 4156.73645 3355.31167 4156.73645 3360.48743 4156.7731 3361.06989 4156.88009 3361.63078 4157.06262 3362.19255 4157.0822 3362.31616 4157.0822 3362.93655 4157.11475 3363.26699 4157.2054 3363.56584 4157.35262 3363.84126 4157.55073 3364.08267 4157.79214 3364.28078 4158.06756 3364.428 4158.36641 3364.51865 4158.69685 3364.5512 4159.13088 3364.5512 4159.23035 3364.56377 4159.3482 3364.61421 4159.87911 3364.82442 4160.43218 3364.96642 4160.99869 3365.03799 4161.56971 3365.03799 4162.13622 3364.96642 4162.68929 3364.82442 4163.2202 3364.61421 4163.33805 3364.56377 4163.43752 3364.5512 4164.56275 3364.5512 4164.89319 3364.51865 4165.22974 3364.41656 4165.39335 3364.39934 4165.50946 3364.41656 4165.84601 3364.51865 4166.17645 3364.5512 4168.30255 3364.5512 4168.63074 3364.51888 4168.98625 3364.40667 4169.16164 3364.39192 4169.32638 3364.45388 4169.44858 3364.58056 4169.50457 3364.74743 4169.48351 3364.92217 4169.38949 3365.07096 4166.09507 3368.36538 4165.98325 3368.44413 4165.54716 3368.5718 4165.27174 3368.71902 4165.03033 3368.91713 4164.83222 3369.15854 4164.685 3369.43396 4164.59435 3369.73281 4164.5618 3370.06325 4164.5618 3370.52187 4164.46893 3371.02156 4164.45606 3371.1288 4164.4365 3371.51025 4164.4365 3372.75444 4164.47062 3373.2532 4164.55343 3373.65174 4164.5618 3373.96095 4164.59435 3374.29139 4164.685 3374.59024 4164.83222 3374.86566 4165.03033 3375.10707 4165.27174 3375.30518 4165.54716 3375.4524 4165.66374 3375.48776 4165.80006 3375.56026 4165.94554 3375.67861 4166.36099 3375.93125 4166.80697 3376.12497 4167.27517 3376.25615 4167.75688 3376.32236 4168.24312 3376.32236 4168.72483 3376.25615 4169.19303 3376.12497 4169.63901 3375.93125 4170.05446 3375.67861 4170.43164 3375.37175 4170.76352 3375.01639 4171.04392 3374.61915 4171.26763 3374.18743 4171.43046 3373.72927 4171.52938 3373.2532 4171.537 3373.14187 4171.57196 3373.00357 4171.65322 3372.88633 4176.15809 3368.38146 4176.28786 3368.29475 4176.44094 3368.2643 4178.35045 3368.2643 4178.68089 3368.23175 4178.97974 3368.1411 4179.25516 3367.99388 4179.32624 3367.93555 4179.45764 3367.86393 4179.60616 3367.84561 4179.75102 3367.88316 4179.87195 3367.97132 4179.95201 3368.09775 4179.98 3368.24475 4179.98 3373.75525 4179.95201 3373.90225 4179.87195 3374.02868 4179.75102 3374.11684 4179.60616 3374.15439 4179.45764 3374.13607 4179.32624 3374.06445 4179.25516 3374.00612 4178.97974 3373.8589 4178.68089 3373.76825 4178.35045 3373.7357 4174.64955 3373.7357 4174.31911 3373.76825 4174.02026 3373.8589 4173.74484 3374.00612 4173.50343 3374.20423 4173.30532 3374.44564 4173.1581 3374.72106 4173.06745 3375.01991 4173.0349 3375.35035 4173.0349 3375.70036 4172.99365 3375.87727 4172.84482 3376.17907 4172.67847 3376.66912 4172.6121 3377.00279 4172.57255 3377.11332 4172.46328 3377.24694 4172.33351 3377.33365 4172.18044 3377.3641 4170.32416 3377.3641 4170.18115 3377.35195 4166.81885 3377.35195 4166.48841 3377.3845 4166.18956 3377.47515 4165.91414 3377.62237 4165.67273 3377.82048 4165.47462 3378.06189 4165.3274 3378.33731 4165.23675 3378.63616 4165.2042 3378.9666 4165.2042 3382.1024 4165.23663 3382.43165 4165.34391 3382.77792 4165.36074 3382.92579 4165.32235 3383.06958 4165.23405 3383.18938 4165.10806 3383.26861 4164.96183 3383.2963 4164.53817 3383.2963 4164.39194 3383.26861 4164.26595 3383.18938 4164.17765 3383.06958 4164.13926 3382.92579 4164.15609 3382.77792 4164.26337 3382.43165 4164.2958 3382.1024 4164.2958 3378.9666 4164.26325 3378.63616 4164.1726 3378.33731 4164.02538 3378.06189 4163.82727 3377.82048 4163.58586 3377.62237 4163.31044 3377.47515 4163.01159 3377.3845 4162.83374 3377.36698 4162.69311 3377.3262 4162.57657 3377.23753 4162.49975 3377.11286 4162.47295 3376.96891 4162.47295 3372.01497 4162.4376 3371.52829 4162.4376 3370.06325 4162.40505 3369.73281 4162.3144 3369.43396 4162.16718 3369.15854 4161.96907 3368.91713 4161.72766 3368.71902 4161.45224 3368.5718 4161.15339 3368.48115 4160.82295 3368.4486 4158.69685 3368.4486 4158.36641 3368.48115 4158.06756 3368.5718 4157.79214 3368.71902 4157.52743 3368.93625 4157.40843 3369.00367 4157.27368 3369.02705 4156.1364 3369.02705 4156.03921 3369.01506 4155.94784 3368.97982 4155.66269 3368.8274 4155.36384 3368.73675 4155.0334 3368.7042 4151.8976 3368.7042 4151.56716 3368.73675 4151.26831 3368.8274 4150.99289 3368.97462 4150.75148 3369.17273 4150.55337 3369.41414 4150.40615 3369.68956 4150.3155 3369.98841 4150.28295 3370.31885 4150.28295 3373.68115 4150.3155 3374.01159 4150.40615 3374.31044 4150.55337 3374.58586 4150.75148 3374.82727 4150.99289 3375.02538 4151.26831 3375.1726 4151.56716 3375.26325 4151.8976 3375.2958 4155.0334 3375.2958 4155.36384 3375.26325 4155.66269 3375.1726 4155.93849 3375.02518 4156.09567 3374.97918 4156.2581 3375.00003 4156.39857 3375.08422 4156.49353 3375.21765 4156.52705 3375.37795 4156.52705 3379.27825 4156.52907 3379.38593 4156.56158 3379.73245 4156.57774 3379.82756 4156.66153 3380.16537 4156.69169 3380.25701 4156.82489 3380.57855 4156.86838 3380.66468 4157.04801 3380.96277 4157.10385 3381.04146 4157.32428 3381.30749 4157.58872 3381.57508 4157.6742 3381.70427 4157.7042 3381.85624 4157.7042 3382.1024 4157.73675 3382.43284 4157.8274 3382.73169 4157.97462 3383.00711 4158.17087 3383.24624 4158.23828 3383.36524 4158.26166 3383.5 4158.23828 3383.63476 4158.17087 3383.75376 4157.97462 3383.99289 4157.8274 3384.26831 4157.73675 3384.56716 4157.7042 3384.8976 4157.7042 3388.0334 4157.73675 3388.36384 4157.8274 3388.66269 4157.98324 3388.95424 4158.02924 3389.11142 4158.00839 3389.27385 4157.9242 3389.41432 4157.79077 3389.50928 Z M 4179.73307 3395.94955 L 4179.58 3395.98 4179.08201 3395.98 4178.92894 3395.94955 4178.79917 3395.86284 4178.71246 3395.73307 4178.68201 3395.58 4178.71246 3395.42693 4178.79917 3395.29716 4179.29716 3394.79917 4179.42693 3394.71246 4179.58 3394.68201 4179.73307 3394.71246 4179.86284 3394.79917 4179.94955 3394.92894 4179.98 3395.08201 4179.98 3395.58 4179.94955 3395.73307 4179.86284 3395.86284 4179.73307 3395.94955 Z " stroke-width="0" id="gge42075_2"/><polyline points="4161 3349.5 4161.2842 3349.7839 4161.2842 3360.5" stroke-width="5.9055" c_shapetype="line" stroke-linecap="round" fill="none" layerid="2" net="" id="gge42099_2" locked="0"/><polyline points="4168.5 3386.4661 4161 3386.4661" stroke-width="3.1496" c_shapetype="line" stroke-linecap="round" fill="none" layerid="2" net="" id="gge42096_2" locked="0"/><polyline points="4176.5 3377.693 4173.6591 3380.5339 4168.5 3380.5339" stroke-width="3.1496" c_shapetype="line" stroke-linecap="round" fill="none" layerid="2" net="" id="gge42093_2" locked="0"/><polyline points="4153.466 3372 4159.28 3372 4159.29 3372.01" stroke-width="2.7559" c_shapetype="line" stroke-linecap="round" fill="none" layerid="2" net="" id="gge42090_2" locked="0"/><polyline points="4149 3350.0259 4150.0259 3349 4160.7158 3349" stroke-width="5.9055" c_shapetype="line" stroke-linecap="round" fill="none" layerid="2" net="" id="gge42102_2" locked="0"/><polyline points="4163.5 3372.012 4163.5 3369 4161.5 3367 4154.0259 3367 4149 3361.9741" stroke-width="2.7559" c_shapetype="line" stroke-linecap="round" fill="none" layerid="2" net="" id="gge42084_2" locked="0"/><polyline points="4175.28 3349 4176.5 3351.5 4176.5 3364" stroke-width="4.7244" c_shapetype="line" stroke-linecap="round" fill="none" layerid="2" net="" id="gge42078_2" locked="0"/><polyline points="4177 3362.5 4168 3371.5 4168 3372.7681" stroke-width="3.937" c_shapetype="line" stroke-linecap="round" fill="none" layerid="2" net="" id="gge42105_2" locked="0"/><polyline points="4149.5 3392.77 4154.77 3392.77 4155.5 3393.5 4175 3393.5 4176.5 3392 4176.5 3377.6931" stroke-width="4.7244" c_shapetype="line" stroke-linecap="round" fill="none" layerid="2" net="" id="gge42081_2" locked="0"/><polyline points="4159.5 3372 4159.5 3379.282 4160.7402 3380.522" stroke-width="2.7559" c_shapetype="line" stroke-linecap="round" fill="none" layerid="2" net="" id="gge42087_2" locked="0"/><g c_partid="part_pad" c_etype="pinpart" layerid="2" id="gge45832_2" c_origin="4149.5,3350.23" net="" c_rotation="270" c_width="5.8465" c_height="6.8031"><polygon points="4146.0984 3353.1535 4152.9016 3353.1535 4152.9016 3347.3071 4146.0984 3347.3071" stroke-width="0"/></g><g c_partid="part_pad" c_etype="pinpart" layerid="2" id="gge45847_2" c_origin="4149.5,3362.77" net="" c_rotation="270" c_width="5.8465" c_height="6.8031"><polygon points="4146.0984 3359.8465 4152.9016 3359.8465 4152.9016 3365.6929 4146.0984 3365.6929" stroke-width="0"/></g><g c_partid="part_pad" c_etype="pinpart" layerid="2" id="gge41940_2" c_origin="4160.716,3349" net="" c_rotation="270" c_width="9.8425" c_height="5.9055"><polygon points="4163.6689 3353.9212 4163.6689 3344.0787 4157.7633 3344.0787 4157.7633 3353.9212" stroke-width="0"/></g><g c_partid="part_pad" c_etype="pinpart" layerid="2" id="gge41958_2" c_origin="4175.283,3349" net="" c_rotation="270" c_width="9.8425" c_height="5.9055"><polygon points="4178.2358 3353.9212 4178.2358 3344.0787 4172.3303 3344.0787 4172.3303 3353.9212" stroke-width="0"/></g><g c_partid="part_pad" c_etype="pinpart" layerid="2" id="gge41571_2" c_origin="4159.76,3372.012" net="" c_rotation="90" c_width="3.937" c_height="2.1654"><polygon points="4158.677 3370.0434 4158.677 3373.9804 4160.8424 3373.9804 4160.8424 3370.0434" stroke-width="0"/></g><g c_partid="part_pad" c_etype="pinpart" layerid="2" id="gge41589_2" c_origin="4163.5,3372.012" net="" c_rotation="90" c_width="3.937" c_height="2.1654"><polygon points="4162.417 3370.0434 4162.417 3373.9804 4164.5824 3373.9804 4164.5824 3370.0434" stroke-width="0"/></g><g c_partid="part_pad" c_etype="pinpart" layerid="2" id="gge41607_2" c_origin="4167.24,3372.012" net="" c_rotation="90" c_width="3.937" c_height="2.1654"><polygon points="4166.157 3370.0434 4166.157 3373.9804 4168.3224 3373.9804 4168.3224 3370.0434" stroke-width="0"/></g><g c_partid="part_pad" c_etype="pinpart" layerid="2" id="gge41625_2" c_origin="4167.24,3360.988" net="" c_rotation="90" c_width="3.937" c_height="2.1654"><polygon points="4166.157 3359.0194 4166.157 3362.9564 4168.3224 3362.9564 4168.3224 3359.0194" stroke-width="0"/></g><g c_partid="part_pad" c_etype="pinpart" layerid="2" id="gge41640_2" c_origin="4163.5,3360.988" net="" c_rotation="90" c_width="3.937" c_height="2.1654"><polygon points="4162.417 3359.0194 4162.417 3362.9564 4164.5824 3362.9564 4164.5824 3359.0194" stroke-width="0"/></g><g c_partid="part_pad" c_etype="pinpart" layerid="2" id="gge41658_2" c_origin="4159.76,3360.988" net="" c_rotation="90" c_width="3.937" c_height="2.1654"><polygon points="4158.677 3359.0194 4158.677 3362.9564 4160.8424 3362.9564 4160.8424 3359.0194" stroke-width="0"/></g><g c_partid="part_pad" c_etype="pinpart" layerid="2" id="gge41883_2" c_origin="4168.5,3380.534" net="" c_rotation="270" c_width="3.1751" c_height="3.4016"><polygon points="4166.7992 3382.122 4170.2008 3382.122 4170.2008 3378.9469 4166.7992 3378.9469" stroke-width="0"/></g><g c_partid="part_pad" c_etype="pinpart" layerid="2" id="gge41901_2" c_origin="4168.5,3386.466" net="" c_rotation="270" c_width="3.1751" c_height="3.4016"><polygon points="4166.7992 3384.878 4170.2008 3384.878 4170.2008 3388.0531 4166.7992 3388.0531" stroke-width="0"/></g><g c_partid="part_pad" c_etype="pinpart" layerid="2" id="gge41802_2" c_origin="4161,3386.466" net="" c_rotation="90" c_width="3.1751" c_height="3.4016"><polygon points="4162.7008 3384.878 4159.2992 3384.878 4159.2992 3388.0531 4162.7008 3388.0531" stroke-width="0"/></g><g c_partid="part_pad" c_etype="pinpart" layerid="2" id="gge41820_2" c_origin="4161,3380.534" net="" c_rotation="90" c_width="3.1751" c_height="3.4016"><polygon points="4162.7008 3382.122 4159.2992 3382.122 4159.2992 3378.9469 4162.7008 3378.9469" stroke-width="0"/></g><g c_partid="part_pad" c_etype="pinpart" layerid="2" id="gge41721_2" c_origin="4153.466,3372" net="" c_rotation="180" c_width="3.1751" c_height="3.4016"><polygon points="4151.878 3370.2992 4151.878 3373.7008 4155.0531 3373.7008 4155.0531 3370.2992" stroke-width="0"/></g><g c_partid="part_pad" c_etype="pinpart" layerid="2" id="gge41739_2" c_origin="4147.534,3372" net="" c_rotation="180" c_width="3.1751" c_height="3.4016"><polygon points="4149.122 3370.2992 4149.122 3373.7008 4145.9469 3373.7008 4145.9469 3370.2992" stroke-width="0"/></g><g c_partid="part_pad" c_etype="pinpart" layerid="2" id="gge45622_2" c_origin="4176.5,3364.307" net="" c_rotation="270" c_width="4.7244" c_height="3.7402"><polygon points="4178.3701 3366.6692 4178.3701 3361.9448 4174.6299 3361.9448 4174.6299 3366.6692" stroke-width="0"/></g><g c_partid="part_pad" c_etype="pinpart" layerid="2" id="gge45637_2" c_origin="4176.5,3377.693" net="" c_rotation="270" c_width="4.7244" c_height="3.7402"><polygon points="4178.3701 3380.0552 4178.3701 3375.3308 4174.6299 3375.3308 4174.6299 3380.0552" stroke-width="0"/></g><g c_partid="part_pad" c_etype="pinpart" layerid="2" id="gge45733_2" c_origin="4149.5,3392.77" net="" c_rotation="90" c_width="5.8465" c_height="6.8031"><polygon points="4152.9016 3389.8465 4146.0984 3389.8465 4146.0984 3395.6929 4152.9016 3395.6929" stroke-width="0"/></g><g c_partid="part_pad" c_etype="pinpart" layerid="2" id="gge45748_2" c_origin="4149.5,3380.23" net="" c_rotation="90" c_width="5.8465" c_height="6.8031"><polygon points="4152.9016 3383.1535 4146.0984 3383.1535 4146.0984 3377.3071 4152.9016 3377.3071" stroke-width="0"/></g></g><g id="bottomSilkLayer" fill="#FFFFFF" stroke="#FFFFFF"><polyline points="4153.8016 3347.0071 4153.8016 3352.8535" stroke-width="0.6" c_shapetype="line" stroke-linecap="round" fill="none" layerid="4" net="" id="gge45796_4" locked="0"/><polyline points="4145.1984 3352.8535 4145.1984 3347.0071" stroke-width="0.6" c_shapetype="line" stroke-linecap="round" fill="none" layerid="4" net="" id="gge45799_4" locked="0"/><polyline points="4145.7984 3346.4071 4153.2016 3346.4071" stroke-width="0.6" c_shapetype="line" stroke-linecap="round" fill="none" layerid="4" net="" id="gge45802_4" locked="0"/><polyline points="4153.8016 3365.9929 4153.8016 3360.1465" stroke-width="0.6" c_shapetype="line" stroke-linecap="round" fill="none" layerid="4" net="" id="gge45805_4" locked="0"/><polyline points="4145.1984 3360.1465 4145.1984 3365.9929" stroke-width="0.6" c_shapetype="line" stroke-linecap="round" fill="none" layerid="4" net="" id="gge45808_4" locked="0"/><polyline points="4145.7984 3366.5929 4153.2016 3366.5929" stroke-width="0.6" c_shapetype="line" stroke-linecap="round" fill="none" layerid="4" net="" id="gge45811_4" locked="0"/><polyline points="4159.7318 3342.7992 4159.7318 3340.7323 4176.2672 3340.7323 4176.2672 3342.7992" stroke-width="1" c_shapetype="line" stroke-linecap="round" fill="none" layerid="4" net="" id="gge41934_4" locked="0"/><polyline points="4159.7318 3355.2008 4159.7318 3357.2677 4176.2672 3357.2677 4176.2672 3355.2008" stroke-width="1" c_shapetype="line" stroke-linecap="round" fill="none" layerid="4" net="" id="gge41937_4" locked="0"/><polyline points="4157.398 3362.9567 4157.398 3370.0434" stroke-width="1" c_shapetype="line" stroke-linecap="round" fill="none" layerid="4" net="" id="gge41514_4" locked="0"/><polyline points="4169.6028 3362.9567 4169.6028 3370.0434" stroke-width="1" c_shapetype="line" stroke-linecap="round" fill="none" layerid="4" net="" id="gge41517_4" locked="0"/><polyline points="4165.8992 3381.822 4165.8992 3378.0469 4171.1008 3378.0469 4171.1008 3381.822" stroke-width="0.6" c_shapetype="line" stroke-linecap="round" fill="none" layerid="4" net="" id="gge41865_4" locked="0"/><polyline points="4165.8992 3385.178 4165.8992 3388.9531 4171.1008 3388.9531 4171.1008 3385.178" stroke-width="0.6" c_shapetype="line" stroke-linecap="round" fill="none" layerid="4" net="" id="gge41868_4" locked="0"/><polyline points="4163.6008 3385.178 4163.6008 3388.9531 4158.3992 3388.9531 4158.3992 3385.178" stroke-width="0.6" c_shapetype="line" stroke-linecap="round" fill="none" layerid="4" net="" id="gge41784_4" locked="0"/><polyline points="4163.6008 3381.822 4163.6008 3378.0469 4158.3992 3378.0469 4158.3992 3381.822" stroke-width="0.6" c_shapetype="line" stroke-linecap="round" fill="none" layerid="4" net="" id="gge41787_4" locked="0"/><polyline points="4152.178 3369.3992 4155.9531 3369.3992 4155.9531 3374.6008 4152.178 3374.6008" stroke-width="0.6" c_shapetype="line" stroke-linecap="round" fill="none" layerid="4" net="" id="gge41703_4" locked="0"/><polyline points="4148.822 3369.3992 4145.0469 3369.3992 4145.0469 3374.6008 4148.822 3374.6008" stroke-width="0.6" c_shapetype="line" stroke-linecap="round" fill="none" layerid="4" net="" id="gge41706_4" locked="0"/><polyline points="4173.7199 3365.7 4173.1535 3365.7" stroke-width="1" c_shapetype="line" stroke-linecap="round" fill="none" layerid="4" net="" id="gge45559_4" locked="0"/><polyline points="4179.8465 3365.7 4179.2801 3365.7" stroke-width="1" c_shapetype="line" stroke-linecap="round" fill="none" layerid="4" net="" id="gge45562_4" locked="0"/><polyline points="4173.1535 3376.3 4173.1535 3377.4487 4173.1575 3377.4527" stroke-width="1" c_shapetype="line" stroke-linecap="round" fill="none" layerid="4" net="" id="gge45565_4" locked="0"/><polyline points="4179.8465 3376.3 4179.8465 3377.4684 4179.8425 3377.4724" stroke-width="1" c_shapetype="line" stroke-linecap="round" fill="none" layerid="4" net="" id="gge45568_4" locked="0"/><polyline points="4179.8465 3376.3 4179.8465 3365.7" stroke-width="1" c_shapetype="line" stroke-linecap="round" fill="none" layerid="4" net="" id="gge45571_4" locked="0"/><polyline points="4178.1 3369.4 4174.9 3369.4" stroke-width="1" c_shapetype="line" stroke-linecap="round" fill="none" layerid="4" net="" id="gge45574_4" locked="0"/><polyline points="4176.501 3369.4 4176.501 3368.165" stroke-width="1" c_shapetype="line" stroke-linecap="round" fill="none" layerid="4" net="" id="gge45577_4" locked="0"/><polyline points="4176.5 3372.1024 4176.5 3373.4016" stroke-width="1" c_shapetype="line" stroke-linecap="round" fill="none" layerid="4" net="" id="gge45580_4" locked="0"/><polyline points="4178.5 3372 4174.5 3372" stroke-width="1" c_shapetype="line" stroke-linecap="round" fill="none" layerid="4" net="" id="gge45583_4" locked="0"/><polyline points="4176.5 3371.7 4178.1 3369.4" stroke-width="1" c_shapetype="line" stroke-linecap="round" fill="none" layerid="4" net="" id="gge45586_4" locked="0"/><polyline points="4174.9 3369.4 4176.5 3371.7" stroke-width="1" c_shapetype="line" stroke-linecap="round" fill="none" layerid="4" net="" id="gge45589_4" locked="0"/><polyline points="4173.1535 3365.7 4173.1535 3376.3" stroke-width="1" c_shapetype="line" stroke-linecap="round" fill="none" layerid="4" net="" id="gge45592_4" locked="0"/><polyline points="4145.1984 3395.9929 4145.1984 3390.1465" stroke-width="0.6" c_shapetype="line" stroke-linecap="round" fill="none" layerid="4" net="" id="gge45697_4" locked="0"/><polyline points="4153.8016 3390.1465 4153.8016 3395.9929" stroke-width="0.6" c_shapetype="line" stroke-linecap="round" fill="none" layerid="4" net="" id="gge45700_4" locked="0"/><polyline points="4153.2016 3396.5929 4145.7984 3396.5929" stroke-width="0.6" c_shapetype="line" stroke-linecap="round" fill="none" layerid="4" net="" id="gge45703_4" locked="0"/><polyline points="4145.1984 3377.0071 4145.1984 3382.8535" stroke-width="0.6" c_shapetype="line" stroke-linecap="round" fill="none" layerid="4" net="" id="gge45706_4" locked="0"/><polyline points="4153.8016 3382.8535 4153.8016 3377.0071" stroke-width="0.6" c_shapetype="line" stroke-linecap="round" fill="none" layerid="4" net="" id="gge45709_4" locked="0"/><polyline points="4153.2016 3376.4071 4145.7984 3376.4071" stroke-width="0.6" c_shapetype="line" stroke-linecap="round" fill="none" layerid="4" net="" id="gge45712_4" locked="0"/><g c_partid="part_pcbtext" c_etype="" c_origin="4167.29,3342.81" c_rotation="90" c_mirror="1" id="gge45766_4" locked="0" layerid="4" c_shapetype="group" display="none"><path c_fontsize="4.5" c_fontfamily="" c_text="22uF" d="M 4163.77 3343.0101 L 4163.57 3343.0101 L 4163.16 3343.2201 L 4162.95 3343.4201 L 4162.75 3343.8301 L 4162.75 3344.6501 L 4162.95 3345.0601 L 4163.16 3345.2601 L 4163.57 3345.4701 L 4163.98 3345.4701 L 4164.39 3345.2601 L 4165 3344.8601 L 4167.04 3342.8101 L 4167.04 3345.6701 M 4163.77 3347.2301 L 4163.57 3347.2301 L 4163.16 3347.4301 L 4162.95 3347.6401 L 4162.75 3348.0501 L 4162.75 3348.8601 L 4162.95 3349.2701 L 4163.16 3349.4801 L 4163.57 3349.6801 L 4163.98 3349.6801 L 4164.39 3349.4801 L 4165 3349.0701 L 4167.04 3347.0201 L 4167.04 3349.8901 M 4164.18 3351.2401 L 4166.23 3351.2401 L 4166.84 3351.4401 L 4167.04 3351.8501 L 4167.04 3352.4601 L 4166.84 3352.8701 L 4166.23 3353.4901 M 4164.18 3353.4901 L 4167.04 3353.4901 M 4162.75 3354.8401 L 4167.04 3354.8401 M 4162.75 3354.8401 L 4162.75 3357.5001 M 4164.79 3354.8401 L 4164.79 3356.4701" fill="none" stroke-width="0.6" c_note="note_name" style=""/></g><g c_partid="part_pcbtext" c_etype="" c_origin="4155.5,3357.5" c_rotation="270" c_mirror="1" id="gge45772_4" locked="0" layerid="4" c_shapetype="group"><path c_fontsize="4.5" c_fontfamily="" c_text="C27" d="M 4159.0182 3354.4318 L 4159.4273 3354.6364 L 4159.8364 3355.0455 L 4160.0409 3355.4545 L 4160.0409 3356.2727 L 4159.8364 3356.6818 L 4159.4273 3357.0909 L 4159.0182 3357.2955 L 4158.4045 3357.5 L 4157.3818 3357.5 L 4156.7682 3357.2955 L 4156.3591 3357.0909 L 4155.95 3356.6818 L 4155.7455 3356.2727 L 4155.7455 3355.4545 L 4155.95 3355.0455 L 4156.3591 3354.6364 L 4156.7682 3354.4318 M 4159.0182 3352.8773 L 4159.2227 3352.8773 L 4159.6318 3352.6727 L 4159.8364 3352.4682 L 4160.0409 3352.0591 L 4160.0409 3351.2409 L 4159.8364 3350.8318 L 4159.6318 3350.6273 L 4159.2227 3350.4227 L 4158.8136 3350.4227 L 4158.4045 3350.6273 L 4157.7909 3351.0364 L 4155.7455 3353.0818 L 4155.7455 3350.2182 M 4160.0409 3346.0045 L 4155.7455 3348.05 M 4160.0409 3348.8682 L 4160.0409 3346.0045" fill="none" stroke-width="0.6" c_note="note_pre" style=""/></g><g c_partid="part_pcbtext" c_etype="" c_origin="4184.849,3369.49" c_rotation="0" c_mirror="1" id="gge41919_4" locked="0" layerid="4" c_shapetype="group" display="none"><path c_fontsize="4.5" c_fontfamily="" c_text="4.7uH" d="M 4182.7996 3364.9499 L 4184.8496 3367.8099 L 4181.7796 3367.8099 M 4182.7996 3364.9499 L 4182.7996 3369.2399 M 4180.2296 3368.2199 L 4180.4296 3368.4299 L 4180.2296 3368.6299 L 4180.0196 3368.4299 L 4180.2296 3368.2199 M 4175.8096 3364.9499 L 4177.8496 3369.2399 M 4178.6696 3364.9499 L 4175.8096 3364.9499 M 4174.4596 3366.3799 L 4174.4596 3368.4299 L 4174.2496 3369.0399 L 4173.8496 3369.2399 L 4173.2296 3369.2399 L 4172.8196 3369.0399 L 4172.2096 3368.4299 M 4172.2096 3366.3799 L 4172.2096 3369.2399 M 4170.8596 3364.9499 L 4170.8596 3369.2399 M 4167.9996 3364.9499 L 4167.9996 3369.2399 M 4170.8596 3366.9899 L 4167.9996 3366.9899" fill="none" stroke-width="0.6" c_note="note_name" style=""/></g><g c_partid="part_pcbtext" c_etype="" c_origin="4168,3357.7" c_rotation="180" c_mirror="1" id="gge41925_4" locked="0" layerid="4" c_shapetype="group" display="none"><path c_fontsize="4.5" c_fontfamily="" c_text="L8" d="M 4168 3362.2409 L 4168 3357.9455 M 4168 3357.9455 L 4170.4545 3357.9455 M 4172.8273 3362.2409 L 4172.2136 3362.0364 L 4172.0091 3361.6273 L 4172.0091 3361.2182 L 4172.2136 3360.8091 L 4172.6227 3360.6045 L 4173.4409 3360.4 L 4174.0545 3360.1955 L 4174.4636 3359.7864 L 4174.6682 3359.3773 L 4174.6682 3358.7636 L 4174.4636 3358.3545 L 4174.2591 3358.15 L 4173.6455 3357.9455 L 4172.8273 3357.9455 L 4172.2136 3358.15 L 4172.0091 3358.3545 L 4171.8045 3358.7636 L 4171.8045 3359.3773 L 4172.0091 3359.7864 L 4172.4182 3360.1955 L 4173.0318 3360.4 L 4173.85 3360.6045 L 4174.2591 3360.8091 L 4174.4636 3361.2182 L 4174.4636 3361.6273 L 4174.2591 3362.0364 L 4173.6455 3362.2409 L 4172.8273 3362.2409" fill="none" stroke-width="0.6" c_note="note_pre" style=""/></g><g c_partid="part_pcbtext" c_etype="" c_origin="4156.149,3365.649" c_rotation="90" c_mirror="1" id="gge41496_4" locked="0" layerid="4" c_shapetype="group" display="none"><path c_fontsize="4.5" c_fontfamily="" c_text="U22" d="M 4151.613 3365.6472 L 4154.673 3365.6472 L 4155.293 3365.8572 L 4155.703 3366.2672 L 4155.903 3366.8772 L 4155.903 3367.2872 L 4155.703 3367.8972 L 4155.293 3368.3072 L 4154.673 3368.5172 L 4151.613 3368.5172 M 4152.633 3370.0672 L 4152.423 3370.0672 L 4152.013 3370.2672 L 4151.813 3370.4772 L 4151.613 3370.8872 L 4151.613 3371.7072 L 4151.813 3372.1172 L 4152.013 3372.3172 L 4152.423 3372.5172 L 4152.833 3372.5172 L 4153.243 3372.3172 L 4153.863 3371.9072 L 4155.903 3369.8672 L 4155.903 3372.7272 M 4152.633 3374.2772 L 4152.423 3374.2772 L 4152.013 3374.4872 L 4151.813 3374.6872 L 4151.613 3375.0972 L 4151.613 3375.9172 L 4151.813 3376.3272 L 4152.013 3376.5272 L 4152.423 3376.7372 L 4152.833 3376.7372 L 4153.243 3376.5272 L 4153.863 3376.1172 L 4155.903 3374.0772 L 4155.903 3376.9372" fill="none" stroke-width="0.6" c_note="note_pre" style=""/></g><g c_partid="part_pcbtext" c_etype="" c_origin="4172.5,3383.5" c_rotation="270" c_mirror="1" id="gge41838_4" locked="0" layerid="4" c_shapetype="group" display="none"><path c_fontsize="4.5" c_fontfamily="" c_text="R48" d="M 4177.0409 3383.5 L 4172.7455 3383.5 M 4177.0409 3383.5 L 4177.0409 3381.6591 L 4176.8364 3381.0455 L 4176.6318 3380.8409 L 4176.2227 3380.6364 L 4175.8136 3380.6364 L 4175.4045 3380.8409 L 4175.2 3381.0455 L 4174.9955 3381.6591 L 4174.9955 3383.5 M 4174.9955 3382.0682 L 4172.7455 3380.6364 M 4177.0409 3377.2409 L 4174.1773 3379.2864 L 4174.1773 3376.2182 M 4177.0409 3377.2409 L 4172.7455 3377.2409 M 4177.0409 3373.8455 L 4176.8364 3374.4591 L 4176.4273 3374.6636 L 4176.0182 3374.6636 L 4175.6091 3374.4591 L 4175.4045 3374.05 L 4175.2 3373.2318 L 4174.9955 3372.6182 L 4174.5864 3372.2091 L 4174.1773 3372.0045 L 4173.5636 3372.0045 L 4173.1545 3372.2091 L 4172.95 3372.4136 L 4172.7455 3373.0273 L 4172.7455 3373.8455 L 4172.95 3374.4591 L 4173.1545 3374.6636 L 4173.5636 3374.8682 L 4174.1773 3374.8682 L 4174.5864 3374.6636 L 4174.9955 3374.2545 L 4175.2 3373.6409 L 4175.4045 3372.8227 L 4175.6091 3372.4136 L 4176.0182 3372.2091 L 4176.4273 3372.2091 L 4176.8364 3372.4136 L 4177.0409 3373.0273 L 4177.0409 3373.8455" fill="none" stroke-width="0.6" c_note="note_pre" style=""/></g><g c_partid="part_pcbtext" c_etype="" c_origin="4157,3383.5" c_rotation="90" c_mirror="1" id="gge41757_4" locked="0" layerid="4" c_shapetype="group" display="none"><path c_fontsize="4.5" c_fontfamily="" c_text="R47" d="M 4152.4591 3383.5 L 4156.7545 3383.5 M 4152.4591 3383.5 L 4152.4591 3385.3409 L 4152.6636 3385.9545 L 4152.8682 3386.1591 L 4153.2773 3386.3636 L 4153.6864 3386.3636 L 4154.0955 3386.1591 L 4154.3 3385.9545 L 4154.5045 3385.3409 L 4154.5045 3383.5 M 4154.5045 3384.9318 L 4156.7545 3386.3636 M 4152.4591 3389.7591 L 4155.3227 3387.7136 L 4155.3227 3390.7818 M 4152.4591 3389.7591 L 4156.7545 3389.7591 M 4152.4591 3394.9955 L 4156.7545 3392.95 M 4152.4591 3392.1318 L 4152.4591 3394.9955" fill="none" stroke-width="0.6" c_note="note_pre" style=""/></g><g c_partid="part_pcbtext" c_etype="" c_origin="4162.001,3380.789" c_rotation="0" c_mirror="1" id="gge41676_4" locked="0" layerid="4" c_shapetype="group" display="none"><path c_fontsize="4.5" c_fontfamily="" c_text="R46" d="M 4162.001 3376.2481 L 4162.001 3380.5435 M 4162.001 3376.2481 L 4160.1601 3376.2481 L 4159.5465 3376.4526 L 4159.3419 3376.6572 L 4159.1374 3377.0663 L 4159.1374 3377.4754 L 4159.3419 3377.8845 L 4159.5465 3378.089 L 4160.1601 3378.2935 L 4162.001 3378.2935 M 4160.5692 3378.2935 L 4159.1374 3380.5435 M 4155.7419 3376.2481 L 4157.7874 3379.1117 L 4154.7192 3379.1117 M 4155.7419 3376.2481 L 4155.7419 3380.5435 M 4150.9146 3376.8617 L 4151.1192 3376.4526 L 4151.7328 3376.2481 L 4152.1419 3376.2481 L 4152.7555 3376.4526 L 4153.1646 3377.0663 L 4153.3692 3378.089 L 4153.3692 3379.1117 L 4153.1646 3379.9299 L 4152.7555 3380.339 L 4152.1419 3380.5435 L 4151.9374 3380.5435 L 4151.3237 3380.339 L 4150.9146 3379.9299 L 4150.7101 3379.3163 L 4150.7101 3379.1117 L 4150.9146 3378.4981 L 4151.3237 3378.089 L 4151.9374 3377.8845 L 4152.1419 3377.8845 L 4152.7555 3378.089 L 4153.1646 3378.4981 L 4153.3692 3379.1117" fill="none" stroke-width="0.6" c_note="note_pre" style=""/></g><g c_partid="part_pcbtext" c_etype="" c_origin="4193.29,3341.3" c_rotation="90" c_mirror="1" id="gge45529_4" locked="0" layerid="4" c_shapetype="group" display="none"><path c_fontsize="4.5" c_fontfamily="" c_text="1N5819HW" d="M 4189.57 3341.2998 L 4189.36 3341.7098 L 4188.75 3342.3198 L 4193.04 3342.3198 M 4188.75 3343.6698 L 4193.04 3343.6698 M 4188.75 3343.6698 L 4193.04 3346.5398 M 4188.75 3346.5398 L 4193.04 3346.5398 M 4188.75 3350.3398 L 4188.75 3348.2998 L 4190.59 3348.0898 L 4190.39 3348.2998 L 4190.18 3348.9098 L 4190.18 3349.5198 L 4190.39 3350.1398 L 4190.79 3350.5498 L 4191.41 3350.7498 L 4191.82 3350.7498 L 4192.43 3350.5498 L 4192.84 3350.1398 L 4193.04 3349.5198 L 4193.04 3348.9098 L 4192.84 3348.2998 L 4192.64 3348.0898 L 4192.23 3347.8898 M 4188.75 3353.1198 L 4188.95 3352.5098 L 4189.36 3352.2998 L 4189.77 3352.2998 L 4190.18 3352.5098 L 4190.39 3352.9198 L 4190.59 3353.7398 L 4190.79 3354.3498 L 4191.2 3354.7598 L 4191.61 3354.9598 L 4192.23 3354.9598 L 4192.64 3354.7598 L 4192.84 3354.5498 L 4193.04 3353.9398 L 4193.04 3353.1198 L 4192.84 3352.5098 L 4192.64 3352.2998 L 4192.23 3352.0998 L 4191.61 3352.0998 L 4191.2 3352.2998 L 4190.79 3352.7098 L 4190.59 3353.3298 L 4190.39 3354.1498 L 4190.18 3354.5498 L 4189.77 3354.7598 L 4189.36 3354.7598 L 4188.95 3354.5498 L 4188.75 3353.9398 L 4188.75 3353.1198 M 4189.57 3356.3098 L 4189.36 3356.7198 L 4188.75 3357.3398 L 4193.04 3357.3398 M 4190.18 3361.3498 L 4190.79 3361.1398 L 4191.2 3360.7298 L 4191.41 3360.1198 L 4191.41 3359.9098 L 4191.2 3359.2998 L 4190.79 3358.8898 L 4190.18 3358.6898 L 4189.98 3358.6898 L 4189.36 3358.8898 L 4188.95 3359.2998 L 4188.75 3359.9098 L 4188.75 3360.1198 L 4188.95 3360.7298 L 4189.36 3361.1398 L 4190.18 3361.3498 L 4191.2 3361.3498 L 4192.23 3361.1398 L 4192.84 3360.7298 L 4193.04 3360.1198 L 4193.04 3359.7098 L 4192.84 3359.0998 L 4192.43 3358.8898 M 4188.75 3362.6998 L 4193.04 3362.6998 M 4188.75 3365.5598 L 4193.04 3365.5598 M 4190.79 3362.6998 L 4190.79 3365.5598 M 4188.75 3366.9098 L 4193.04 3367.9298 M 4188.75 3368.9498 L 4193.04 3367.9298 M 4188.75 3368.9498 L 4193.04 3369.9798 M 4188.75 3370.9998 L 4193.04 3369.9798" fill="none" stroke-width="0.6" c_note="note_name" style=""/></g><g c_partid="part_pcbtext" c_etype="" c_origin="4181.5,3371" c_rotation="270" c_mirror="1" id="gge45535_4" locked="0" layerid="4" c_shapetype="group"><path c_fontsize="4.5" c_fontfamily="" c_text="D1" d="M 4186.04 3371 L 4181.75 3371 M 4186.04 3371 L 4186.04 3369.57 L 4185.84 3368.95 L 4185.43 3368.55 L 4185.02 3368.34 L 4184.4 3368.14 L 4183.38 3368.14 L 4182.77 3368.34 L 4182.36 3368.55 L 4181.95 3368.95 L 4181.75 3369.57 L 4181.75 3371 M 4185.22 3366.79 L 4185.43 3366.38 L 4186.04 3365.76 L 4181.75 3365.76" fill="none" stroke-width="0.6" c_note="note_pre" style=""/></g><g c_partid="part_pcbtext" c_etype="" c_origin="4136.5,3385.5" c_rotation="90" c_mirror="1" id="gge45667_4" locked="0" layerid="4" c_shapetype="group" display="none"><path c_fontsize="4.5" c_fontfamily="" c_text="22uF" d="M 4132.98 3385.7 L 4132.78 3385.7 L 4132.37 3385.91 L 4132.16 3386.11 L 4131.96 3386.52 L 4131.96 3387.34 L 4132.16 3387.75 L 4132.37 3387.95 L 4132.78 3388.16 L 4133.19 3388.16 L 4133.6 3387.95 L 4134.21 3387.55 L 4136.25 3385.5 L 4136.25 3388.36 M 4132.98 3389.92 L 4132.78 3389.92 L 4132.37 3390.12 L 4132.16 3390.33 L 4131.96 3390.74 L 4131.96 3391.55 L 4132.16 3391.96 L 4132.37 3392.17 L 4132.78 3392.37 L 4133.19 3392.37 L 4133.6 3392.17 L 4134.21 3391.76 L 4136.25 3389.71 L 4136.25 3392.58 M 4133.39 3393.93 L 4135.44 3393.93 L 4136.05 3394.13 L 4136.25 3394.54 L 4136.25 3395.15 L 4136.05 3395.56 L 4135.44 3396.18 M 4133.39 3396.18 L 4136.25 3396.18 M 4131.96 3397.53 L 4136.25 3397.53 M 4131.96 3397.53 L 4131.96 3400.19 M 4134 3397.53 L 4134 3399.16" fill="none" stroke-width="0.6" c_note="note_name" style=""/></g><g c_partid="part_pcbtext" c_etype="" c_origin="4143.5,3385.5" c_rotation="90" c_mirror="1" id="gge45673_4" locked="0" layerid="4" c_shapetype="group"><path c_fontsize="4.5" c_fontfamily="" c_text="C12" d="M 4139.98 3388.57 L 4139.57 3388.36 L 4139.16 3387.95 L 4138.96 3387.55 L 4138.96 3386.73 L 4139.16 3386.32 L 4139.57 3385.91 L 4139.98 3385.7 L 4140.6 3385.5 L 4141.62 3385.5 L 4142.23 3385.7 L 4142.64 3385.91 L 4143.05 3386.32 L 4143.25 3386.73 L 4143.25 3387.55 L 4143.05 3387.95 L 4142.64 3388.36 L 4142.23 3388.57 M 4139.78 3389.92 L 4139.57 3390.33 L 4138.96 3390.94 L 4143.25 3390.94 M 4139.98 3392.5 L 4139.78 3392.5 L 4139.37 3392.7 L 4139.16 3392.9 L 4138.96 3393.31 L 4138.96 3394.13 L 4139.16 3394.54 L 4139.37 3394.75 L 4139.78 3394.95 L 4140.19 3394.95 L 4140.6 3394.75 L 4141.21 3394.34 L 4143.25 3392.29 L 4143.25 3395.15" fill="none" stroke-width="0.6" c_note="note_pre" style=""/></g><path d="M 4145.1984 3347.0071 A 0.6 0.6 0 0 1 4145.7984 3346.4071" locked="0" c_shapetype="line" fill="none" stroke-width="0.6" c_helper_type="arc2" net="" layerid="4" id="gge45814_4"/><path d="M 4153.2016 3346.4071 A 0.6 0.6 0 0 1 4153.8016 3347.0071" locked="0" c_shapetype="line" fill="none" stroke-width="0.6" c_helper_type="arc2" net="" layerid="4" id="gge45817_4"/><path d="M 4145.1984 3365.9929 A 0.6 0.6 0 0 0 4145.7984 3366.5929" locked="0" c_shapetype="line" fill="none" stroke-width="0.6" c_helper_type="arc2" net="" layerid="4" id="gge45820_4"/><path d="M 4153.2016 3366.5929 A 0.6 0.6 0 0 0 4153.8016 3365.9929" locked="0" c_shapetype="line" fill="none" stroke-width="0.6" c_helper_type="arc2" net="" layerid="4" id="gge45823_4"/><path d="M 4153.8016 3395.9929 A 0.6 0.6 0 0 1 4153.2016 3396.5929" locked="0" c_shapetype="line" fill="none" stroke-width="0.6" c_helper_type="arc2" net="" layerid="4" id="gge45715_4"/><path d="M 4145.7984 3396.5929 A 0.6 0.6 0 0 1 4145.1984 3395.9929" locked="0" c_shapetype="line" fill="none" stroke-width="0.6" c_helper_type="arc2" net="" layerid="4" id="gge45718_4"/><path d="M 4153.8016 3377.0071 A 0.6 0.6 0 0 0 4153.2016 3376.4071" locked="0" c_shapetype="line" fill="none" stroke-width="0.6" c_helper_type="arc2" net="" layerid="4" id="gge45721_4"/><path d="M 4145.7984 3376.4071 A 0.6 0.6 0 0 0 4145.1984 3377.0071" locked="0" c_shapetype="line" fill="none" stroke-width="0.6" c_helper_type="arc2" net="" layerid="4" id="gge45724_4"/><circle cx="4170" cy="3372" r="0.5" stroke-width="1" fill="none" layerid="4" id="gge41520_4" locked="0" c_shapetype="line"/><path d="M 4174.9 3369.4 L 4178.1 3369.4 L 4176.5 3371.7 Z " stroke-width="0" c_shapetype="line" net="" type="solid" layerid="4" id="gge45595_4" locked="0" c_teardrop="" c_targetpad="" c_targetwire=""/><path d="M 4180.3465 3376.9117 L 4178.8896 3376.9117 L 4178.8896 3378.1118 L 4180.3465 3378.1118 Z " stroke-width="0" c_shapetype="line" net="" type="solid" layerid="4" id="gge45598_4" locked="0" c_teardrop="" c_targetpad="" c_targetwire=""/><path d="M 4172.6535 3376.9117 L 4174.1103 3376.9117 L 4174.1103 3378.1118 L 4172.6535 3378.1118 Z " stroke-width="0" c_shapetype="line" net="" type="solid" layerid="4" id="gge45601_4" locked="0" c_teardrop="" c_targetpad="" c_targetwire=""/></g></g></g></svg>